<?xml version="1.0" encoding="UTF-8" standalone="no"?>
<!DOCTYPE svg PUBLIC "-//W3C//DTD SVG 1.1//EN" "http://www.w3.org/Graphics/SVG/1.1/DTD/svg11.dtd">
<svg width="100%" height="100%" viewBox="0 0 182 70" version="1.1" xmlns="http://www.w3.org/2000/svg" xmlns:xlink="http://www.w3.org/1999/xlink" xml:space="preserve" xmlns:serif="http://www.serif.com/" style="fill-rule:evenodd;clip-rule:evenodd;stroke-linejoin:round;stroke-miterlimit:2;">
    <g transform="matrix(0.917066,0,0,0.917066,3.49356,-13.8641)">
        <g transform="matrix(1,0,0,1,-2.18087,2)">
            <path d="M151.496,68.221C152.259,71.552 154.012,74.547 156.678,76.708C159.869,79.295 163.879,80.436 167.953,80.382C171.083,80.341 174.192,79.68 177.019,78.32C179.872,76.948 182.243,74.782 184.019,72.173C186.875,73.351 189.725,74.543 192.569,75.75C189.961,79.809 186.328,83.092 181.975,85.186C177.533,87.324 172.635,88.306 167.718,88.306C162.834,88.306 157.931,87.388 153.53,85.221C149.636,83.304 146.236,80.472 143.877,76.809C142.271,74.317 141.197,71.515 140.725,68.589C144.315,68.466 147.906,68.343 151.496,68.221ZM126.981,69.059C124.338,75.311 121.663,81.55 118.956,87.775C116.027,87.778 113.099,87.78 110.171,87.783C107.474,81.812 104.743,75.855 101.977,69.915C105.272,69.802 108.566,69.689 111.861,69.577C112.837,71.745 113.808,73.915 114.775,76.087C115.746,73.853 116.713,71.616 117.675,69.378C120.777,69.272 123.879,69.165 126.981,69.059ZM82.112,70.594C82.112,73.762 82.112,76.929 82.112,80.096C84.618,80.057 87.123,80.017 89.629,79.977C89.629,82.353 89.629,84.729 89.629,87.106C82.131,87.123 74.633,87.14 67.136,87.157C67.136,84.883 67.136,82.608 67.136,80.334C68.886,80.306 70.637,80.278 72.388,80.251C72.388,77.143 72.388,74.035 72.388,70.927C75.629,70.816 78.871,70.705 82.112,70.594ZM58.73,71.394C58.73,74.419 58.73,77.443 58.73,80.467C61.532,80.423 64.334,80.378 67.136,80.334C67.136,82.608 67.136,84.883 67.136,87.157C61.093,87.171 55.049,87.185 49.006,87.198C49.006,82.041 49.006,76.884 49.006,71.727C52.247,71.616 55.489,71.505 58.73,71.394ZM28.712,72.421C28.712,75.262 28.712,78.103 28.712,80.943C31.562,80.898 34.412,80.853 37.262,80.808C37.262,82.947 37.262,85.086 37.262,87.225C28.215,87.246 19.167,87.281 10.12,87.286C10.101,86.732 9.936,81.779 9.888,81.227C12.921,81.217 15.955,81.146 18.987,81.098C18.987,78.316 18.987,75.535 18.987,72.754C22.229,72.643 25.47,72.532 28.712,72.421Z" style="fill:rgb(58,58,58);"/>
        </g>
    </g>
    <g transform="matrix(0.917066,0,0,0.917066,-0.423505,-12.9471)">
        <path d="M139.191,70.144C139.02,68.63 138.966,67.103 139.009,65.579C139.15,60.518 140.407,55.518 142.882,51.087C145.214,46.91 148.516,43.343 152.599,40.834C156.61,38.369 161.194,37.053 165.894,36.92C170.654,36.784 175.461,37.677 179.634,40.041C183.589,42.281 186.73,45.66 188.88,49.649C191.353,54.239 192.397,59.453 192.569,64.63C178.38,65.56 164.191,66.49 150.002,67.42C150.068,68.08 150.16,68.738 150.28,69.391C146.584,69.642 142.887,69.893 139.191,70.144ZM115.459,71.757C118.371,64.176 121.281,56.595 124.188,49.012C121.861,49.109 119.534,49.206 117.207,49.303C117.33,46.115 117.453,42.927 117.576,39.739C125.57,39.497 133.564,39.256 141.559,39.015C141.475,42.11 141.391,45.205 141.307,48.3C138.757,48.406 136.207,48.512 133.656,48.619C130.787,56.115 127.915,63.611 125.04,71.106C121.846,71.323 118.653,71.54 115.459,71.757ZM99.296,72.855C96.929,65.365 94.611,57.858 92.341,50.337C89.376,50.461 86.411,50.584 83.447,50.707C83.625,47.389 83.803,44.07 83.982,40.752C92.483,40.495 100.985,40.239 109.487,39.983C109.35,43.202 109.214,46.422 109.077,49.641C106.894,49.732 104.71,49.823 102.526,49.914C104.794,57.345 107.109,64.762 109.472,72.164C106.08,72.394 102.688,72.625 99.296,72.855ZM68.831,74.926C69.299,67.036 69.767,59.146 70.235,51.257C67.621,51.366 65.007,51.474 62.393,51.583C62.606,48.183 62.819,44.783 63.031,41.383C68.916,41.206 74.8,41.029 80.685,40.851C80.071,51.983 79.457,63.114 78.843,74.245C75.506,74.472 72.168,74.699 68.831,74.926ZM13.657,79.12C15.102,61.733 16.546,44.347 17.991,26.96C15.031,26.999 12.071,27.037 9.111,27.075C9.42,23.494 9.729,19.913 10.038,16.332C16.228,16.323 22.417,16.314 28.606,16.305C27.719,27.469 26.832,38.633 25.945,49.797C30.546,45.438 36.444,40.784 43.091,40.595C53.437,40.301 56.43,48.954 55.822,57.929C55.407,64.066 54.991,70.202 54.576,76.339C51.238,76.566 47.901,76.793 44.563,77.02C44.908,72.21 45.252,67.4 45.597,62.59C45.795,59.824 46.075,56.246 44.686,53.665C43.748,51.922 41.998,51.174 40.071,51.251C34.464,51.475 29.143,56.161 25.163,59.63C24.665,65.9 24.167,72.17 23.669,78.439C20.331,78.666 16.994,78.893 13.657,79.12ZM165.963,45.281C162.229,45.427 158.8,46.975 156.095,49.531C153.119,52.343 151.284,56.08 150.456,60.06C161.012,59.463 171.568,58.865 182.125,58.268C181.278,54.495 179.333,51.073 176.294,48.644C173.35,46.29 169.724,45.134 165.963,45.281Z" style="fill:rgb(0,117,244);"/>
    </g>
    <g transform="matrix(0.917066,0,0,0.917066,-0.423505,-12.9471)">
        <path d="M81.586,27.39C81.586,28.987 81.006,30.365 79.847,31.524C78.689,32.682 77.311,33.262 75.713,33.262C74.116,33.262 72.754,32.682 71.626,31.524C70.499,30.365 69.935,28.987 69.935,27.39C69.935,25.792 70.499,24.414 71.626,23.256C72.754,22.097 74.116,21.517 75.713,21.517C77.373,21.517 78.767,22.081 79.894,23.209C81.022,24.336 81.586,25.73 81.586,27.39Z" style="fill:rgb(71,71,71);"/>
    </g>
</svg>
