<?xml version="1.0" encoding="UTF-8" standalone="no"?>
<!DOCTYPE svg PUBLIC "-//W3C//DTD SVG 1.1//EN" "http://www.w3.org/Graphics/SVG/1.1/DTD/svg11.dtd">
<svg width="100%" height="100%" viewBox="0 0 520 170" version="1.1" xmlns="http://www.w3.org/2000/svg" xmlns:xlink="http://www.w3.org/1999/xlink" xml:space="preserve" xmlns:serif="http://www.serif.com/" style="fill-rule:evenodd;clip-rule:evenodd;stroke-linecap:round;stroke-linejoin:round;stroke-miterlimit:1.5;">
    <g transform="matrix(1,0,0,1,-305,-66)">
        <g transform="matrix(0.656716,0,0,0.730769,125.925,18.3462)">
            <path d="M428,96C428,88.825 421.518,83 413.534,83L308.466,83C300.482,83 294,88.825 294,96L294,122C294,129.175 300.482,135 308.466,135L413.534,135C421.518,135 428,129.175 428,122L428,96Z" style="fill:rgb(235,185,235);"/>
        </g>
        <g transform="matrix(1,0,0,1,156.57,-0.114646)">
            <g transform="matrix(22.3367,0,0,22.3367,187,106)">
                <path d="M0.066,-0L0.168,-0L0.168,-0.302C0.168,-0.337 0.178,-0.364 0.197,-0.383C0.216,-0.402 0.24,-0.411 0.269,-0.411C0.298,-0.411 0.322,-0.402 0.341,-0.383C0.36,-0.364 0.369,-0.337 0.369,-0.302L0.369,-0L0.471,-0L0.471,-0.337C0.47,-0.395 0.451,-0.439 0.417,-0.469C0.382,-0.498 0.344,-0.513 0.302,-0.513C0.247,-0.513 0.203,-0.493 0.17,-0.453L0.168,-0.453L0.168,-0.712L0.066,-0.712L0.066,-0Z" style="fill-rule:nonzero;"/>
            </g>
            <g transform="matrix(22.3367,0,0,22.3367,198.997,106)">
                <path d="M0.069,-0L0.171,-0L0.171,-0.507L0.069,-0.507L0.069,-0ZM0.069,-0.61L0.171,-0.61L0.171,-0.712L0.069,-0.712L0.069,-0.61Z" style="fill-rule:nonzero;"/>
            </g>
            <g transform="matrix(22.3367,0,0,22.3367,204.352,106)">
                <path d="M0.18,-0L0.264,-0L0.45,-0.507L0.342,-0.507L0.223,-0.152L0.221,-0.152L0.102,-0.507L-0.006,-0.507L0.18,-0Z" style="fill-rule:nonzero;"/>
            </g>
            <g transform="matrix(22.3367,0,0,22.3367,214.136,106)">
                <path d="M0.459,-0.215L0.459,-0.299C0.458,-0.366 0.438,-0.418 0.397,-0.456C0.357,-0.493 0.308,-0.513 0.25,-0.513C0.226,-0.513 0.201,-0.509 0.177,-0.5C0.152,-0.491 0.129,-0.477 0.109,-0.457C0.089,-0.438 0.073,-0.411 0.06,-0.377C0.047,-0.344 0.041,-0.302 0.041,-0.252C0.041,-0.2 0.048,-0.158 0.063,-0.125C0.076,-0.091 0.094,-0.065 0.115,-0.046C0.126,-0.037 0.138,-0.029 0.151,-0.023C0.163,-0.016 0.175,-0.01 0.188,-0.006C0.213,0.002 0.239,0.006 0.266,0.006C0.336,0.007 0.397,-0.021 0.449,-0.076L0.375,-0.139C0.342,-0.106 0.306,-0.09 0.264,-0.09C0.229,-0.09 0.2,-0.101 0.178,-0.122C0.155,-0.143 0.143,-0.174 0.143,-0.215L0.459,-0.215ZM0.143,-0.299C0.145,-0.338 0.156,-0.368 0.175,-0.388C0.194,-0.407 0.219,-0.417 0.25,-0.417C0.281,-0.417 0.306,-0.407 0.325,-0.388C0.345,-0.368 0.356,-0.338 0.357,-0.299L0.143,-0.299Z" style="fill-rule:nonzero;"/>
            </g>
        </g>
    </g>
    <g transform="matrix(1,0,0,1,-94,-67)">
        <g transform="matrix(0.69403,0,0,0.730769,109.955,18.3462)">
            <path d="M428,96C428,88.825 421.867,83 414.312,83L307.688,83C300.133,83 294,88.825 294,96L294,122C294,129.175 300.133,135 307.688,135L414.312,135C421.867,135 428,129.175 428,122L428,96Z" style="fill:rgb(176,185,235);"/>
        </g>
        <g transform="matrix(1,0,0,1,136.57,-0.114646)">
            <g transform="matrix(22.3367,0,0,22.3367,187,106)">
                <path d="M0.369,-0.053L0.369,-0L0.471,-0L0.471,-0.712L0.369,-0.712L0.369,-0.453C0.35,-0.471 0.331,-0.486 0.31,-0.497C0.288,-0.508 0.264,-0.513 0.238,-0.513C0.176,-0.512 0.131,-0.489 0.102,-0.447C0.088,-0.431 0.079,-0.41 0.074,-0.384C0.069,-0.358 0.066,-0.315 0.066,-0.254C0.066,-0.194 0.069,-0.151 0.074,-0.125C0.079,-0.098 0.088,-0.076 0.102,-0.06C0.117,-0.041 0.136,-0.025 0.159,-0.013C0.181,-0.001 0.207,0.005 0.238,0.006C0.292,0.005 0.336,-0.015 0.369,-0.053ZM0.269,-0.411C0.293,-0.411 0.312,-0.406 0.326,-0.397C0.34,-0.388 0.35,-0.375 0.355,-0.36C0.361,-0.345 0.366,-0.328 0.368,-0.31C0.369,-0.292 0.369,-0.273 0.369,-0.254C0.369,-0.236 0.369,-0.218 0.368,-0.199C0.366,-0.18 0.361,-0.163 0.355,-0.148C0.35,-0.133 0.34,-0.12 0.326,-0.111C0.312,-0.101 0.293,-0.096 0.269,-0.096C0.245,-0.096 0.227,-0.101 0.214,-0.11C0.2,-0.119 0.19,-0.131 0.183,-0.146C0.177,-0.161 0.173,-0.179 0.171,-0.198C0.169,-0.216 0.168,-0.235 0.168,-0.254C0.168,-0.274 0.169,-0.294 0.171,-0.313C0.173,-0.331 0.177,-0.347 0.183,-0.363C0.19,-0.378 0.2,-0.39 0.214,-0.399C0.227,-0.407 0.245,-0.411 0.269,-0.411Z" style="fill-rule:nonzero;"/>
            </g>
            <g transform="matrix(22.3367,0,0,22.3367,198.594,106)">
                <path d="M0.041,-0.254C0.041,-0.201 0.045,-0.16 0.054,-0.132C0.063,-0.104 0.077,-0.08 0.096,-0.059C0.11,-0.043 0.13,-0.029 0.155,-0.016C0.18,-0.002 0.211,0.005 0.25,0.006C0.29,0.005 0.322,-0.002 0.347,-0.016C0.361,-0.022 0.371,-0.029 0.38,-0.037C0.389,-0.044 0.397,-0.052 0.404,-0.059C0.424,-0.08 0.438,-0.104 0.447,-0.132C0.455,-0.16 0.459,-0.201 0.459,-0.254C0.459,-0.307 0.455,-0.348 0.447,-0.377C0.438,-0.405 0.424,-0.429 0.404,-0.448C0.39,-0.465 0.372,-0.48 0.347,-0.493C0.322,-0.506 0.29,-0.513 0.25,-0.513C0.211,-0.513 0.18,-0.506 0.155,-0.493C0.13,-0.48 0.11,-0.465 0.096,-0.448C0.077,-0.429 0.063,-0.405 0.054,-0.377C0.045,-0.348 0.041,-0.307 0.041,-0.254ZM0.357,-0.253C0.357,-0.218 0.355,-0.193 0.352,-0.177C0.349,-0.16 0.342,-0.146 0.332,-0.133C0.325,-0.123 0.313,-0.114 0.299,-0.107C0.285,-0.1 0.269,-0.096 0.25,-0.096C0.233,-0.096 0.217,-0.1 0.202,-0.107C0.188,-0.114 0.177,-0.123 0.168,-0.133C0.159,-0.146 0.153,-0.16 0.149,-0.177C0.145,-0.193 0.143,-0.219 0.143,-0.254C0.143,-0.289 0.145,-0.315 0.149,-0.332C0.153,-0.348 0.159,-0.362 0.168,-0.374C0.177,-0.385 0.188,-0.394 0.202,-0.401C0.217,-0.408 0.233,-0.411 0.25,-0.411C0.269,-0.411 0.285,-0.408 0.299,-0.401C0.313,-0.394 0.325,-0.385 0.332,-0.374C0.342,-0.362 0.349,-0.348 0.352,-0.332C0.355,-0.315 0.357,-0.289 0.357,-0.253Z" style="fill-rule:nonzero;"/>
            </g>
            <g transform="matrix(22.3367,0,0,22.3367,209.762,106)">
                <path d="M0.364,-0.149C0.338,-0.114 0.304,-0.097 0.261,-0.096C0.174,-0.095 0.13,-0.147 0.129,-0.253C0.13,-0.36 0.174,-0.412 0.261,-0.411C0.304,-0.41 0.338,-0.392 0.364,-0.358L0.439,-0.425C0.417,-0.451 0.391,-0.473 0.361,-0.489C0.331,-0.504 0.296,-0.513 0.257,-0.513C0.197,-0.514 0.144,-0.494 0.099,-0.453C0.052,-0.412 0.028,-0.345 0.027,-0.253C0.028,-0.162 0.052,-0.096 0.099,-0.055C0.144,-0.014 0.197,0.006 0.257,0.006C0.296,0.005 0.331,-0.003 0.361,-0.02C0.391,-0.036 0.417,-0.057 0.439,-0.082L0.364,-0.149Z" style="fill-rule:nonzero;"/>
            </g>
            <g transform="matrix(22.3367,0,0,22.3367,219.676,106)">
                <path d="M0.066,-0L0.168,-0L0.168,-0.146L0.248,-0.237L0.383,-0L0.511,-0L0.312,-0.309L0.487,-0.507L0.365,-0.507L0.17,-0.269L0.168,-0.269L0.168,-0.712L0.066,-0.712L0.066,-0Z" style="fill-rule:nonzero;"/>
            </g>
            <g transform="matrix(22.3367,0,0,22.3367,230.997,106)">
                <path d="M0.459,-0.215L0.459,-0.299C0.458,-0.366 0.438,-0.418 0.397,-0.456C0.357,-0.493 0.308,-0.513 0.25,-0.513C0.226,-0.513 0.201,-0.509 0.177,-0.5C0.152,-0.491 0.129,-0.477 0.109,-0.457C0.089,-0.438 0.073,-0.411 0.06,-0.377C0.047,-0.344 0.041,-0.302 0.041,-0.252C0.041,-0.2 0.048,-0.158 0.063,-0.125C0.076,-0.091 0.094,-0.065 0.115,-0.046C0.126,-0.037 0.138,-0.029 0.151,-0.023C0.163,-0.016 0.175,-0.01 0.188,-0.006C0.213,0.002 0.239,0.006 0.266,0.006C0.336,0.007 0.397,-0.021 0.449,-0.076L0.375,-0.139C0.342,-0.106 0.306,-0.09 0.264,-0.09C0.229,-0.09 0.2,-0.101 0.178,-0.122C0.155,-0.143 0.143,-0.174 0.143,-0.215L0.459,-0.215ZM0.143,-0.299C0.145,-0.338 0.156,-0.368 0.175,-0.388C0.194,-0.407 0.219,-0.417 0.25,-0.417C0.281,-0.417 0.306,-0.407 0.325,-0.388C0.345,-0.368 0.356,-0.338 0.357,-0.299L0.143,-0.299Z" style="fill-rule:nonzero;"/>
            </g>
            <g transform="matrix(22.3367,0,0,22.3367,242.166,106)">
                <path d="M0.066,-0L0.168,-0L0.168,-0.305C0.169,-0.342 0.179,-0.369 0.2,-0.386C0.219,-0.403 0.241,-0.411 0.267,-0.411C0.29,-0.411 0.313,-0.403 0.334,-0.386L0.408,-0.474C0.378,-0.5 0.342,-0.513 0.302,-0.513C0.247,-0.513 0.203,-0.493 0.17,-0.453L0.168,-0.453L0.168,-0.507L0.066,-0.507L0.066,-0Z" style="fill-rule:nonzero;"/>
            </g>
            <g transform="matrix(22.3367,0,0,22.3367,250.455,106)">
                <path d="M0.369,-0.053L0.369,-0L0.471,-0L0.471,-0.712L0.369,-0.712L0.369,-0.453C0.35,-0.471 0.331,-0.486 0.31,-0.497C0.288,-0.508 0.264,-0.513 0.238,-0.513C0.176,-0.512 0.131,-0.489 0.102,-0.447C0.088,-0.431 0.079,-0.41 0.074,-0.384C0.069,-0.358 0.066,-0.315 0.066,-0.254C0.066,-0.194 0.069,-0.151 0.074,-0.125C0.079,-0.098 0.088,-0.076 0.102,-0.06C0.117,-0.041 0.136,-0.025 0.159,-0.013C0.181,-0.001 0.207,0.005 0.238,0.006C0.292,0.005 0.336,-0.015 0.369,-0.053ZM0.269,-0.411C0.293,-0.411 0.312,-0.406 0.326,-0.397C0.34,-0.388 0.35,-0.375 0.355,-0.36C0.361,-0.345 0.366,-0.328 0.368,-0.31C0.369,-0.292 0.369,-0.273 0.369,-0.254C0.369,-0.236 0.369,-0.218 0.368,-0.199C0.366,-0.18 0.361,-0.163 0.355,-0.148C0.35,-0.133 0.34,-0.12 0.326,-0.111C0.312,-0.101 0.293,-0.096 0.269,-0.096C0.245,-0.096 0.227,-0.101 0.214,-0.11C0.2,-0.119 0.19,-0.131 0.183,-0.146C0.177,-0.161 0.173,-0.179 0.171,-0.198C0.169,-0.216 0.168,-0.235 0.168,-0.254C0.168,-0.274 0.169,-0.294 0.171,-0.313C0.173,-0.331 0.177,-0.347 0.183,-0.363C0.19,-0.378 0.2,-0.39 0.214,-0.399C0.227,-0.407 0.245,-0.411 0.269,-0.411Z" style="fill-rule:nonzero;"/>
            </g>
        </g>
    </g>
    <g transform="matrix(1,0,0,1,-290.5,37.905)">
        <g transform="matrix(1.09701,0,0,0.730769,-3.52239,18.3462)">
            <path d="M428,96C428,88.825 424.12,83 419.34,83L302.66,83C297.88,83 294,88.825 294,96L294,122C294,129.175 297.88,135 302.66,135L419.34,135C424.12,135 428,129.175 428,122L428,96Z" style="fill:rgb(235,235,180);"/>
        </g>
        <g transform="matrix(1,0,0,1,156.747,-0.114646)">
            <g transform="matrix(22.3367,0,0,22.3367,187,106)">
                <path d="M0.081,-0.155L0.01,-0.085C0.076,-0.024 0.15,0.006 0.233,0.006C0.294,0.005 0.344,-0.009 0.383,-0.036C0.422,-0.063 0.442,-0.101 0.443,-0.15C0.443,-0.192 0.432,-0.227 0.41,-0.254C0.387,-0.282 0.349,-0.298 0.296,-0.302L0.212,-0.308C0.187,-0.311 0.17,-0.317 0.16,-0.326C0.149,-0.335 0.144,-0.345 0.145,-0.356C0.145,-0.374 0.152,-0.389 0.165,-0.4C0.178,-0.411 0.2,-0.417 0.232,-0.417C0.26,-0.417 0.285,-0.413 0.306,-0.405C0.328,-0.396 0.349,-0.384 0.368,-0.37L0.431,-0.444C0.406,-0.465 0.378,-0.482 0.347,-0.495C0.331,-0.501 0.313,-0.506 0.295,-0.509C0.276,-0.512 0.255,-0.513 0.232,-0.513C0.178,-0.513 0.133,-0.5 0.098,-0.474C0.062,-0.448 0.044,-0.409 0.043,-0.357C0.044,-0.314 0.058,-0.28 0.085,-0.256C0.112,-0.231 0.146,-0.217 0.189,-0.213L0.279,-0.205C0.298,-0.204 0.313,-0.2 0.324,-0.193C0.335,-0.186 0.341,-0.173 0.341,-0.155C0.341,-0.134 0.332,-0.118 0.313,-0.107C0.294,-0.096 0.271,-0.09 0.241,-0.09C0.176,-0.09 0.122,-0.111 0.081,-0.155Z" style="fill-rule:nonzero;"/>
            </g>
            <g transform="matrix(22.3367,0,0,22.3367,197.721,106)">
                <path d="M0.069,-0L0.171,-0L0.171,-0.507L0.069,-0.507L0.069,-0ZM0.069,-0.61L0.171,-0.61L0.171,-0.712L0.069,-0.712L0.069,-0.61Z" style="fill-rule:nonzero;"/>
            </g>
            <g transform="matrix(22.3367,0,0,22.3367,203.076,106)">
                <path d="M0.072,-0L0.174,-0L0.174,-0.302C0.174,-0.337 0.184,-0.364 0.203,-0.383C0.222,-0.402 0.246,-0.411 0.275,-0.411C0.304,-0.411 0.328,-0.402 0.347,-0.383C0.366,-0.364 0.375,-0.337 0.375,-0.302L0.375,-0L0.477,-0L0.477,-0.302C0.477,-0.337 0.487,-0.364 0.506,-0.383C0.525,-0.402 0.549,-0.411 0.578,-0.411C0.607,-0.411 0.631,-0.402 0.65,-0.383C0.668,-0.364 0.678,-0.337 0.678,-0.302L0.678,-0L0.78,-0L0.78,-0.337C0.778,-0.395 0.761,-0.439 0.726,-0.469C0.691,-0.498 0.653,-0.513 0.611,-0.513C0.544,-0.514 0.491,-0.492 0.451,-0.447C0.434,-0.466 0.414,-0.482 0.393,-0.495C0.372,-0.507 0.343,-0.513 0.308,-0.513C0.253,-0.513 0.209,-0.493 0.176,-0.453L0.174,-0.453L0.174,-0.507L0.072,-0.507L0.072,-0Z" style="fill-rule:nonzero;"/>
            </g>
            <g transform="matrix(22.3367,0,0,22.3367,222.108,106)">
                <path d="M0.066,-0.17C0.067,-0.113 0.085,-0.069 0.122,-0.04C0.156,-0.01 0.194,0.005 0.236,0.006C0.29,0.006 0.334,-0.014 0.367,-0.054L0.369,-0.054L0.369,-0L0.471,-0L0.471,-0.507L0.369,-0.507L0.369,-0.205C0.369,-0.171 0.36,-0.144 0.341,-0.125C0.322,-0.106 0.298,-0.096 0.269,-0.096C0.24,-0.096 0.216,-0.106 0.197,-0.125C0.178,-0.144 0.168,-0.171 0.168,-0.205L0.168,-0.507L0.066,-0.507L0.066,-0.17Z" style="fill-rule:nonzero;"/>
            </g>
            <g transform="matrix(22.3367,0,0,22.3367,234.106,106)">
                <path d="M0.066,-0.123C0.066,-0.078 0.079,-0.047 0.104,-0.028C0.128,-0.009 0.159,-0 0.196,-0L0.241,-0L0.241,-0.096L0.206,-0.096C0.181,-0.096 0.168,-0.108 0.168,-0.131L0.168,-0.712L0.066,-0.712L0.066,-0.123Z" style="fill-rule:nonzero;"/>
            </g>
            <g transform="matrix(22.3367,0,0,22.3367,239.864,106)">
                <path d="M0.332,-0L0.434,-0L0.434,-0.346C0.433,-0.408 0.414,-0.452 0.376,-0.477C0.338,-0.502 0.287,-0.514 0.223,-0.513C0.148,-0.514 0.09,-0.49 0.052,-0.439L0.132,-0.378C0.141,-0.393 0.153,-0.403 0.168,-0.409C0.183,-0.414 0.203,-0.417 0.228,-0.417C0.298,-0.418 0.333,-0.397 0.332,-0.352L0.332,-0.299L0.191,-0.299C0.137,-0.298 0.096,-0.284 0.068,-0.255C0.04,-0.227 0.026,-0.192 0.026,-0.149C0.026,-0.104 0.042,-0.068 0.074,-0.039C0.105,-0.01 0.148,0.005 0.205,0.006C0.24,0.006 0.267,0.002 0.286,-0.007C0.306,-0.015 0.321,-0.028 0.33,-0.045L0.332,-0.045L0.332,-0ZM0.332,-0.178C0.332,-0.14 0.324,-0.116 0.308,-0.105C0.291,-0.094 0.26,-0.089 0.218,-0.09C0.184,-0.09 0.16,-0.097 0.145,-0.11C0.13,-0.122 0.122,-0.137 0.122,-0.154C0.121,-0.193 0.151,-0.214 0.21,-0.215L0.332,-0.215L0.332,-0.178Z" style="fill-rule:nonzero;"/>
            </g>
            <g transform="matrix(22.3367,0,0,22.3367,251.033,106)">
                <path d="M0.072,-0.507L0.021,-0.507L0.021,-0.429L0.072,-0.429L0.072,-0.125C0.072,-0.085 0.083,-0.054 0.107,-0.033C0.13,-0.011 0.159,-0 0.195,-0L0.248,-0L0.248,-0.096L0.21,-0.096C0.185,-0.096 0.173,-0.108 0.174,-0.134L0.174,-0.429L0.248,-0.429L0.248,-0.507L0.174,-0.507L0.174,-0.661L0.072,-0.661L0.072,-0.507Z" style="fill-rule:nonzero;"/>
            </g>
            <g transform="matrix(22.3367,0,0,22.3367,257.239,106)">
                <path d="M0.041,-0.254C0.041,-0.201 0.045,-0.16 0.054,-0.132C0.063,-0.104 0.077,-0.08 0.096,-0.059C0.11,-0.043 0.13,-0.029 0.155,-0.016C0.18,-0.002 0.211,0.005 0.25,0.006C0.29,0.005 0.322,-0.002 0.347,-0.016C0.361,-0.022 0.371,-0.029 0.38,-0.037C0.389,-0.044 0.397,-0.052 0.404,-0.059C0.424,-0.08 0.438,-0.104 0.447,-0.132C0.455,-0.16 0.459,-0.201 0.459,-0.254C0.459,-0.307 0.455,-0.348 0.447,-0.377C0.438,-0.405 0.424,-0.429 0.404,-0.448C0.39,-0.465 0.372,-0.48 0.347,-0.493C0.322,-0.506 0.29,-0.513 0.25,-0.513C0.211,-0.513 0.18,-0.506 0.155,-0.493C0.13,-0.48 0.11,-0.465 0.096,-0.448C0.077,-0.429 0.063,-0.405 0.054,-0.377C0.045,-0.348 0.041,-0.307 0.041,-0.254ZM0.357,-0.253C0.357,-0.218 0.355,-0.193 0.352,-0.177C0.349,-0.16 0.342,-0.146 0.332,-0.133C0.325,-0.123 0.313,-0.114 0.299,-0.107C0.285,-0.1 0.269,-0.096 0.25,-0.096C0.233,-0.096 0.217,-0.1 0.202,-0.107C0.188,-0.114 0.177,-0.123 0.168,-0.133C0.159,-0.146 0.153,-0.16 0.149,-0.177C0.145,-0.193 0.143,-0.219 0.143,-0.254C0.143,-0.289 0.145,-0.315 0.149,-0.332C0.153,-0.348 0.159,-0.362 0.168,-0.374C0.177,-0.385 0.188,-0.394 0.202,-0.401C0.217,-0.408 0.233,-0.411 0.25,-0.411C0.269,-0.411 0.285,-0.408 0.299,-0.401C0.313,-0.394 0.325,-0.385 0.332,-0.374C0.342,-0.362 0.349,-0.348 0.352,-0.332C0.355,-0.315 0.357,-0.289 0.357,-0.253Z" style="fill-rule:nonzero;"/>
            </g>
            <g transform="matrix(22.3367,0,0,22.3367,268.407,106)">
                <path d="M0.066,-0L0.168,-0L0.168,-0.305C0.169,-0.342 0.179,-0.369 0.2,-0.386C0.219,-0.403 0.241,-0.411 0.267,-0.411C0.29,-0.411 0.313,-0.403 0.334,-0.386L0.408,-0.474C0.378,-0.5 0.342,-0.513 0.302,-0.513C0.247,-0.513 0.203,-0.493 0.17,-0.453L0.168,-0.453L0.168,-0.507L0.066,-0.507L0.066,-0Z" style="fill-rule:nonzero;"/>
            </g>
        </g>
    </g>
    <g transform="matrix(1,0,0,1,-11,-15.095)">
        <g transform="matrix(0.828358,0,0,0.730769,75.4627,18.3462)">
            <path d="M428,96C428,88.825 422.861,83 416.532,83L305.468,83C299.139,83 294,88.825 294,96L294,122C294,129.175 299.139,135 305.468,135L416.532,135C422.861,135 428,129.175 428,122L428,96Z" style="fill:rgb(144,235,163);"/>
        </g>
        <g transform="matrix(1,0,0,1,156.018,-0.114646)">
            <g transform="matrix(22.3367,0,0,22.3367,187,106)">
                <path d="M0.364,-0.149C0.338,-0.114 0.304,-0.097 0.261,-0.096C0.174,-0.095 0.13,-0.147 0.129,-0.253C0.13,-0.36 0.174,-0.412 0.261,-0.411C0.304,-0.41 0.338,-0.392 0.364,-0.358L0.439,-0.425C0.417,-0.451 0.391,-0.473 0.361,-0.489C0.331,-0.504 0.296,-0.513 0.257,-0.513C0.197,-0.514 0.144,-0.494 0.099,-0.453C0.052,-0.412 0.028,-0.345 0.027,-0.253C0.028,-0.162 0.052,-0.096 0.099,-0.055C0.144,-0.014 0.197,0.006 0.257,0.006C0.296,0.005 0.331,-0.003 0.361,-0.02C0.391,-0.036 0.417,-0.057 0.439,-0.082L0.364,-0.149Z" style="fill-rule:nonzero;"/>
            </g>
            <g transform="matrix(22.3367,0,0,22.3367,196.914,106)">
                <path d="M0.066,-0.123C0.066,-0.078 0.079,-0.047 0.104,-0.028C0.128,-0.009 0.159,-0 0.196,-0L0.241,-0L0.241,-0.096L0.206,-0.096C0.181,-0.096 0.168,-0.108 0.168,-0.131L0.168,-0.712L0.066,-0.712L0.066,-0.123Z" style="fill-rule:nonzero;"/>
            </g>
            <g transform="matrix(22.3367,0,0,22.3367,202.673,106)">
                <path d="M0.069,-0L0.171,-0L0.171,-0.507L0.069,-0.507L0.069,-0ZM0.069,-0.61L0.171,-0.61L0.171,-0.712L0.069,-0.712L0.069,-0.61Z" style="fill-rule:nonzero;"/>
            </g>
            <g transform="matrix(22.3367,0,0,22.3367,208.028,106)">
                <path d="M0.459,-0.215L0.459,-0.299C0.458,-0.366 0.438,-0.418 0.397,-0.456C0.357,-0.493 0.308,-0.513 0.25,-0.513C0.226,-0.513 0.201,-0.509 0.177,-0.5C0.152,-0.491 0.129,-0.477 0.109,-0.457C0.089,-0.438 0.073,-0.411 0.06,-0.377C0.047,-0.344 0.041,-0.302 0.041,-0.252C0.041,-0.2 0.048,-0.158 0.063,-0.125C0.076,-0.091 0.094,-0.065 0.115,-0.046C0.126,-0.037 0.138,-0.029 0.151,-0.023C0.163,-0.016 0.175,-0.01 0.188,-0.006C0.213,0.002 0.239,0.006 0.266,0.006C0.336,0.007 0.397,-0.021 0.449,-0.076L0.375,-0.139C0.342,-0.106 0.306,-0.09 0.264,-0.09C0.229,-0.09 0.2,-0.101 0.178,-0.122C0.155,-0.143 0.143,-0.174 0.143,-0.215L0.459,-0.215ZM0.143,-0.299C0.145,-0.338 0.156,-0.368 0.175,-0.388C0.194,-0.407 0.219,-0.417 0.25,-0.417C0.281,-0.417 0.306,-0.407 0.325,-0.388C0.345,-0.368 0.356,-0.338 0.357,-0.299L0.143,-0.299Z" style="fill-rule:nonzero;"/>
            </g>
            <g transform="matrix(22.3367,0,0,22.3367,219.196,106)">
                <path d="M0.066,-0L0.168,-0L0.168,-0.302C0.168,-0.337 0.178,-0.364 0.197,-0.383C0.216,-0.402 0.24,-0.411 0.269,-0.411C0.298,-0.411 0.322,-0.402 0.341,-0.383C0.36,-0.364 0.369,-0.337 0.369,-0.302L0.369,-0L0.471,-0L0.471,-0.337C0.47,-0.395 0.451,-0.439 0.417,-0.469C0.382,-0.498 0.344,-0.513 0.302,-0.513C0.247,-0.513 0.203,-0.493 0.17,-0.453L0.168,-0.453L0.168,-0.507L0.066,-0.507L0.066,-0Z" style="fill-rule:nonzero;"/>
            </g>
            <g transform="matrix(22.3367,0,0,22.3367,231.194,106)">
                <path d="M0.072,-0.507L0.021,-0.507L0.021,-0.429L0.072,-0.429L0.072,-0.125C0.072,-0.085 0.083,-0.054 0.107,-0.033C0.13,-0.011 0.159,-0 0.195,-0L0.248,-0L0.248,-0.096L0.21,-0.096C0.185,-0.096 0.173,-0.108 0.174,-0.134L0.174,-0.429L0.248,-0.429L0.248,-0.507L0.174,-0.507L0.174,-0.661L0.072,-0.661L0.072,-0.507Z" style="fill-rule:nonzero;"/>
            </g>
            <g transform="matrix(22.3367,0,0,22.3367,242.755,106)">
                <path d="M0.194,-0.604L0.194,-0L0.296,-0L0.296,-0.712L0.194,-0.712L0.093,-0.638L0.093,-0.53L0.194,-0.604Z" style="fill-rule:nonzero;"/>
            </g>
        </g>
    </g>
    <g transform="matrix(1,0,0,1,75,36.905)">
        <g transform="matrix(0.828358,0,0,0.730769,75.4627,18.3462)">
            <path d="M428,96C428,88.825 422.861,83 416.532,83L305.468,83C299.139,83 294,88.825 294,96L294,122C294,129.175 299.139,135 305.468,135L416.532,135C422.861,135 428,129.175 428,122L428,96Z" style="fill:rgb(144,235,163);"/>
        </g>
        <g transform="matrix(1,0,0,1,154.018,-0.114646)">
            <g transform="matrix(22.3367,0,0,22.3367,187,106)">
                <path d="M0.364,-0.149C0.338,-0.114 0.304,-0.097 0.261,-0.096C0.174,-0.095 0.13,-0.147 0.129,-0.253C0.13,-0.36 0.174,-0.412 0.261,-0.411C0.304,-0.41 0.338,-0.392 0.364,-0.358L0.439,-0.425C0.417,-0.451 0.391,-0.473 0.361,-0.489C0.331,-0.504 0.296,-0.513 0.257,-0.513C0.197,-0.514 0.144,-0.494 0.099,-0.453C0.052,-0.412 0.028,-0.345 0.027,-0.253C0.028,-0.162 0.052,-0.096 0.099,-0.055C0.144,-0.014 0.197,0.006 0.257,0.006C0.296,0.005 0.331,-0.003 0.361,-0.02C0.391,-0.036 0.417,-0.057 0.439,-0.082L0.364,-0.149Z" style="fill-rule:nonzero;"/>
            </g>
            <g transform="matrix(22.3367,0,0,22.3367,196.914,106)">
                <path d="M0.066,-0.123C0.066,-0.078 0.079,-0.047 0.104,-0.028C0.128,-0.009 0.159,-0 0.196,-0L0.241,-0L0.241,-0.096L0.206,-0.096C0.181,-0.096 0.168,-0.108 0.168,-0.131L0.168,-0.712L0.066,-0.712L0.066,-0.123Z" style="fill-rule:nonzero;"/>
            </g>
            <g transform="matrix(22.3367,0,0,22.3367,202.673,106)">
                <path d="M0.069,-0L0.171,-0L0.171,-0.507L0.069,-0.507L0.069,-0ZM0.069,-0.61L0.171,-0.61L0.171,-0.712L0.069,-0.712L0.069,-0.61Z" style="fill-rule:nonzero;"/>
            </g>
            <g transform="matrix(22.3367,0,0,22.3367,208.028,106)">
                <path d="M0.459,-0.215L0.459,-0.299C0.458,-0.366 0.438,-0.418 0.397,-0.456C0.357,-0.493 0.308,-0.513 0.25,-0.513C0.226,-0.513 0.201,-0.509 0.177,-0.5C0.152,-0.491 0.129,-0.477 0.109,-0.457C0.089,-0.438 0.073,-0.411 0.06,-0.377C0.047,-0.344 0.041,-0.302 0.041,-0.252C0.041,-0.2 0.048,-0.158 0.063,-0.125C0.076,-0.091 0.094,-0.065 0.115,-0.046C0.126,-0.037 0.138,-0.029 0.151,-0.023C0.163,-0.016 0.175,-0.01 0.188,-0.006C0.213,0.002 0.239,0.006 0.266,0.006C0.336,0.007 0.397,-0.021 0.449,-0.076L0.375,-0.139C0.342,-0.106 0.306,-0.09 0.264,-0.09C0.229,-0.09 0.2,-0.101 0.178,-0.122C0.155,-0.143 0.143,-0.174 0.143,-0.215L0.459,-0.215ZM0.143,-0.299C0.145,-0.338 0.156,-0.368 0.175,-0.388C0.194,-0.407 0.219,-0.417 0.25,-0.417C0.281,-0.417 0.306,-0.407 0.325,-0.388C0.345,-0.368 0.356,-0.338 0.357,-0.299L0.143,-0.299Z" style="fill-rule:nonzero;"/>
            </g>
            <g transform="matrix(22.3367,0,0,22.3367,219.196,106)">
                <path d="M0.066,-0L0.168,-0L0.168,-0.302C0.168,-0.337 0.178,-0.364 0.197,-0.383C0.216,-0.402 0.24,-0.411 0.269,-0.411C0.298,-0.411 0.322,-0.402 0.341,-0.383C0.36,-0.364 0.369,-0.337 0.369,-0.302L0.369,-0L0.471,-0L0.471,-0.337C0.47,-0.395 0.451,-0.439 0.417,-0.469C0.382,-0.498 0.344,-0.513 0.302,-0.513C0.247,-0.513 0.203,-0.493 0.17,-0.453L0.168,-0.453L0.168,-0.507L0.066,-0.507L0.066,-0Z" style="fill-rule:nonzero;"/>
            </g>
            <g transform="matrix(22.3367,0,0,22.3367,231.194,106)">
                <path d="M0.072,-0.507L0.021,-0.507L0.021,-0.429L0.072,-0.429L0.072,-0.125C0.072,-0.085 0.083,-0.054 0.107,-0.033C0.13,-0.011 0.159,-0 0.195,-0L0.248,-0L0.248,-0.096L0.21,-0.096C0.185,-0.096 0.173,-0.108 0.174,-0.134L0.174,-0.429L0.248,-0.429L0.248,-0.507L0.174,-0.507L0.174,-0.661L0.072,-0.661L0.072,-0.507Z" style="fill-rule:nonzero;"/>
            </g>
            <g transform="matrix(22.3367,0,0,22.3367,242.755,106)">
                <path d="M0.032,-0L0.438,-0L0.438,-0.102L0.166,-0.102L0.395,-0.389C0.424,-0.426 0.438,-0.467 0.438,-0.514C0.437,-0.573 0.418,-0.621 0.379,-0.659C0.341,-0.698 0.291,-0.717 0.23,-0.718C0.175,-0.717 0.129,-0.698 0.092,-0.66C0.055,-0.621 0.035,-0.572 0.032,-0.513L0.134,-0.513C0.137,-0.546 0.149,-0.571 0.168,-0.589C0.187,-0.607 0.21,-0.616 0.238,-0.616C0.269,-0.615 0.294,-0.605 0.311,-0.585C0.328,-0.565 0.336,-0.542 0.336,-0.515C0.336,-0.505 0.335,-0.494 0.332,-0.483C0.328,-0.471 0.321,-0.458 0.31,-0.444L0.032,-0.096L0.032,-0Z" style="fill-rule:nonzero;"/>
            </g>
        </g>
    </g>
    <g transform="matrix(1,0,0,1,-9,-13)">
        <g transform="matrix(1,-0,-0,1,9,13)">
            <path d="M32.938,47.624L30,38L24.064,46.125L32.938,47.624Z"/>
            <path d="M43.325,121.96L44,132L35.563,126.516L43.325,121.96Z"/>
            <path d="M28.801,45.099C26.425,65.834 29.601,104.208 40.355,125.791" style="fill:none;stroke:black;stroke-width:1px;"/>
        </g>
    </g>
    <g transform="matrix(1,0,0,1,-9,-13)">
        <g transform="matrix(1,-0,-0,1,9,13)">
            <path d="M171.145,124.803L162,129L170.845,133.798L171.145,124.803Z"/>
            <path d="M311.593,76.471L320,82L310.533,85.408L311.593,76.471Z"/>
            <path d="M169.196,129.24C171.332,129.265 173.367,129.267 174.436,129.252C216.184,128.664 260.488,77.45 312.85,81.152" style="fill:none;stroke:black;stroke-width:1px;"/>
        </g>
    </g>
    <g transform="matrix(1,0,0,1,156,-44)">
        <g transform="matrix(1,-0,-0,1,-156,44)">
            <path d="M413.48,77.27L406,84L415.872,85.946L413.48,77.27Z"/>
            <path d="M456.567,121.722L448,127L448.918,116.98L456.567,121.722Z"/>
            <path d="M412.941,82.086C450.507,73.226 465.592,95.178 451.794,120.881" style="fill:none;stroke:black;stroke-width:1px;"/>
        </g>
    </g>
    <g transform="matrix(1,0,0,1,-12,-14)">
        <g transform="matrix(1,-0,-0,1,12,14)">
            <path d="M171.987,140.771L162,142L168.975,149.252L171.987,140.771Z"/>
            <path d="M395.925,135.652L405,140L396.077,144.651L395.925,135.652Z"/>
            <path d="M168.785,144.409C219.485,159.635 338.412,142.441 395.633,140.177C396.126,140.157 396.899,140.139 397.801,140.121" style="fill:none;stroke:black;stroke-width:1px;"/>
        </g>
    </g>
    <g transform="matrix(0.991667,0,0,0.866472,128.475,-185.268)">
        <path d="M297,296.75C297,289.713 292.008,284 285.86,284L188.14,284C181.992,284 177,289.713 177,296.75L177,322.25C177,329.287 181.992,335 188.14,335L285.86,335C292.008,335 297,329.287 297,322.25L297,296.75Z" style="fill:none;stroke:black;stroke-width:1.07px;stroke-dasharray:5.37,4.3,0,0;"/>
    </g>
    <g transform="matrix(0.991667,0,0,0.925296,214.475,-150.974)">
        <path d="M297,296.75C297,289.713 291.669,284 285.103,284L188.897,284C182.331,284 177,289.713 177,296.75L177,322.25C177,329.287 182.331,335 188.897,335L285.103,335C291.669,335 297,329.287 297,322.25L297,296.75Z" style="fill:none;stroke:black;stroke-width:1.04px;stroke-dasharray:5.21,4.17,0,0;"/>
    </g>
    <g transform="matrix(1.3,0,0,0.905688,-206.1,-144.405)">
        <path d="M297,296.75C297,289.713 293.02,284 288.117,284L185.883,284C180.98,284 177,289.713 177,296.75L177,322.25C177,329.287 180.98,335 185.883,335L288.117,335C293.02,335 297,329.287 297,322.25L297,296.75Z" style="fill:none;stroke:black;stroke-width:0.89px;stroke-dasharray:4.46,3.57,0,0;"/>
    </g>
    <path d="M97.606,27.784L89,32L97.537,36.355L97.606,27.784Z"/>
    <path d="M230.41,14.088L234,23L224.716,20.525L230.41,14.088Z"/>
    <path d="M95.857,32.055C127.136,30.103 195.106,3.14 228.851,18.445" style="fill:none;stroke:black;stroke-width:1px;"/>
    <g transform="matrix(1,0,0,1,-28,-16)">
        <g transform="matrix(1,0,0,1,-2,-1)">
            <rect x="29" y="92" width="87" height="12" style="fill:white;"/>
        </g>
        <g transform="matrix(1,0,0,1,-7,3)">
            <g transform="matrix(11.1684,0,0,11.1684,41,98)">
                <path d="M0.031,-0.155L0.118,-0.168C0.123,-0.134 0.136,-0.107 0.158,-0.088C0.181,-0.07 0.212,-0.061 0.252,-0.061C0.292,-0.061 0.322,-0.069 0.342,-0.085C0.361,-0.102 0.371,-0.121 0.371,-0.143C0.371,-0.163 0.362,-0.179 0.345,-0.19C0.333,-0.198 0.303,-0.208 0.255,-0.22C0.191,-0.236 0.146,-0.25 0.121,-0.262C0.096,-0.274 0.078,-0.29 0.065,-0.311C0.052,-0.332 0.045,-0.355 0.045,-0.381C0.045,-0.404 0.051,-0.425 0.061,-0.445C0.072,-0.465 0.086,-0.481 0.104,-0.494C0.118,-0.504 0.137,-0.513 0.16,-0.52C0.184,-0.527 0.209,-0.53 0.236,-0.53C0.277,-0.53 0.313,-0.524 0.344,-0.513C0.374,-0.501 0.397,-0.485 0.412,-0.465C0.426,-0.445 0.436,-0.418 0.442,-0.385L0.356,-0.373C0.352,-0.4 0.341,-0.421 0.322,-0.436C0.303,-0.451 0.277,-0.458 0.243,-0.458C0.202,-0.458 0.174,-0.451 0.156,-0.438C0.139,-0.425 0.13,-0.409 0.13,-0.391C0.13,-0.38 0.134,-0.369 0.141,-0.36C0.148,-0.351 0.16,-0.343 0.175,-0.337C0.184,-0.334 0.209,-0.326 0.252,-0.314C0.315,-0.298 0.358,-0.284 0.383,-0.274C0.407,-0.263 0.426,-0.248 0.44,-0.228C0.454,-0.207 0.461,-0.182 0.461,-0.152C0.461,-0.123 0.453,-0.095 0.436,-0.07C0.419,-0.044 0.394,-0.024 0.362,-0.01C0.33,0.005 0.293,0.012 0.252,0.012C0.185,0.012 0.134,-0.002 0.098,-0.03C0.063,-0.058 0.041,-0.1 0.031,-0.155Z" style="fill-rule:nonzero;"/>
            </g>
            <g transform="matrix(11.1684,0,0,11.1684,46.5842,98)">
                <path d="M0.066,-0.615L0.066,-0.716L0.154,-0.716L0.154,-0.615L0.066,-0.615ZM0.066,-0L0.066,-0.519L0.154,-0.519L0.154,-0L0.066,-0Z" style="fill-rule:nonzero;"/>
            </g>
            <g transform="matrix(11.1684,0,0,11.1684,49.0654,98)">
                <path d="M0.066,-0L0.066,-0.519L0.145,-0.519L0.145,-0.446C0.161,-0.471 0.182,-0.492 0.209,-0.507C0.236,-0.523 0.267,-0.53 0.302,-0.53C0.34,-0.53 0.372,-0.522 0.396,-0.506C0.421,-0.49 0.438,-0.468 0.448,-0.439C0.489,-0.5 0.543,-0.53 0.608,-0.53C0.66,-0.53 0.699,-0.516 0.727,-0.488C0.755,-0.459 0.769,-0.415 0.769,-0.356L0.769,-0L0.681,-0L0.681,-0.327C0.681,-0.362 0.678,-0.387 0.673,-0.403C0.667,-0.418 0.657,-0.431 0.642,-0.44C0.627,-0.449 0.609,-0.454 0.589,-0.454C0.552,-0.454 0.522,-0.442 0.498,-0.418C0.474,-0.393 0.462,-0.355 0.462,-0.301L0.462,-0L0.374,-0L0.374,-0.337C0.374,-0.376 0.367,-0.405 0.353,-0.425C0.338,-0.444 0.315,-0.454 0.282,-0.454C0.257,-0.454 0.235,-0.448 0.214,-0.435C0.193,-0.422 0.177,-0.403 0.168,-0.377C0.159,-0.352 0.154,-0.316 0.154,-0.269L0.154,-0L0.066,-0Z" style="fill-rule:nonzero;"/>
            </g>
            <g transform="matrix(11.1684,0,0,11.1684,58.3688,98)">
                <path d="M0.406,-0L0.406,-0.076C0.365,-0.018 0.311,0.012 0.241,0.012C0.211,0.012 0.182,0.006 0.156,-0.006C0.129,-0.018 0.109,-0.032 0.096,-0.05C0.084,-0.068 0.075,-0.09 0.069,-0.115C0.066,-0.132 0.064,-0.16 0.064,-0.197L0.064,-0.519L0.152,-0.519L0.152,-0.231C0.152,-0.185 0.154,-0.154 0.157,-0.138C0.163,-0.115 0.174,-0.097 0.192,-0.084C0.21,-0.071 0.232,-0.064 0.259,-0.064C0.285,-0.064 0.31,-0.071 0.333,-0.084C0.356,-0.098 0.372,-0.116 0.382,-0.139C0.392,-0.163 0.396,-0.196 0.396,-0.241L0.396,-0.519L0.484,-0.519L0.484,-0L0.406,-0Z" style="fill-rule:nonzero;"/>
            </g>
            <g transform="matrix(11.1684,0,0,11.1684,64.5801,98)">
                <rect x="0.064" y="-0.716" width="0.088" height="0.716" style="fill-rule:nonzero;"/>
            </g>
            <g transform="matrix(11.1684,0,0,11.1684,67.0613,98)">
                <path d="M0.404,-0.064C0.372,-0.036 0.34,-0.017 0.31,-0.005C0.28,0.006 0.248,0.012 0.213,0.012C0.156,0.012 0.113,-0.002 0.082,-0.03C0.051,-0.058 0.036,-0.093 0.036,-0.137C0.036,-0.162 0.042,-0.185 0.053,-0.206C0.065,-0.227 0.08,-0.244 0.099,-0.257C0.118,-0.27 0.139,-0.279 0.162,-0.286C0.179,-0.29 0.205,-0.295 0.24,-0.299C0.311,-0.307 0.363,-0.317 0.397,-0.329C0.397,-0.341 0.397,-0.349 0.397,-0.352C0.397,-0.388 0.389,-0.413 0.373,-0.428C0.35,-0.448 0.317,-0.458 0.272,-0.458C0.231,-0.458 0.201,-0.45 0.181,-0.436C0.161,-0.421 0.147,-0.396 0.137,-0.359L0.051,-0.371C0.059,-0.407 0.072,-0.437 0.09,-0.46C0.108,-0.482 0.134,-0.5 0.167,-0.512C0.201,-0.524 0.241,-0.53 0.285,-0.53C0.329,-0.53 0.365,-0.525 0.393,-0.515C0.421,-0.504 0.441,-0.491 0.454,-0.475C0.467,-0.46 0.476,-0.44 0.481,-0.416C0.484,-0.401 0.486,-0.374 0.486,-0.334L0.486,-0.217C0.486,-0.136 0.488,-0.084 0.491,-0.062C0.495,-0.041 0.503,-0.02 0.514,-0L0.422,-0C0.413,-0.018 0.407,-0.04 0.404,-0.064ZM0.397,-0.26C0.365,-0.247 0.317,-0.236 0.253,-0.227C0.217,-0.222 0.192,-0.216 0.177,-0.209C0.162,-0.203 0.15,-0.193 0.142,-0.181C0.134,-0.168 0.13,-0.154 0.13,-0.139C0.13,-0.116 0.139,-0.096 0.156,-0.081C0.174,-0.065 0.2,-0.057 0.234,-0.057C0.268,-0.057 0.298,-0.065 0.325,-0.079C0.351,-0.094 0.37,-0.114 0.383,-0.14C0.392,-0.16 0.397,-0.189 0.397,-0.228L0.397,-0.26Z" style="fill-rule:nonzero;"/>
            </g>
            <g transform="matrix(11.1684,0,0,11.1684,73.2727,98)">
                <path d="M0.258,-0.079L0.271,-0.001C0.246,0.004 0.224,0.007 0.204,0.007C0.172,0.007 0.147,0.002 0.13,-0.008C0.112,-0.018 0.1,-0.032 0.093,-0.048C0.086,-0.065 0.082,-0.099 0.082,-0.152L0.082,-0.45L0.018,-0.45L0.018,-0.519L0.082,-0.519L0.082,-0.647L0.169,-0.7L0.169,-0.519L0.258,-0.519L0.258,-0.45L0.169,-0.45L0.169,-0.147C0.169,-0.122 0.171,-0.106 0.174,-0.099C0.177,-0.091 0.182,-0.086 0.189,-0.082C0.196,-0.077 0.206,-0.075 0.219,-0.075C0.229,-0.075 0.242,-0.076 0.258,-0.079Z" style="fill-rule:nonzero;"/>
            </g>
            <g transform="matrix(11.1684,0,0,11.1684,76.3756,98)">
                <path d="M0.066,-0.615L0.066,-0.716L0.154,-0.716L0.154,-0.615L0.066,-0.615ZM0.066,-0L0.066,-0.519L0.154,-0.519L0.154,-0L0.066,-0Z" style="fill-rule:nonzero;"/>
            </g>
            <g transform="matrix(11.1684,0,0,11.1684,78.8569,98)">
                <path d="M0.033,-0.259C0.033,-0.355 0.06,-0.426 0.113,-0.473C0.158,-0.511 0.212,-0.53 0.276,-0.53C0.348,-0.53 0.406,-0.507 0.451,-0.46C0.496,-0.413 0.519,-0.349 0.519,-0.267C0.519,-0.2 0.509,-0.147 0.489,-0.109C0.469,-0.071 0.44,-0.041 0.402,-0.02C0.363,0.001 0.322,0.012 0.276,0.012C0.204,0.012 0.145,-0.012 0.1,-0.058C0.056,-0.105 0.033,-0.172 0.033,-0.259ZM0.124,-0.259C0.124,-0.193 0.138,-0.143 0.167,-0.11C0.196,-0.077 0.232,-0.061 0.276,-0.061C0.32,-0.061 0.356,-0.077 0.385,-0.11C0.414,-0.144 0.429,-0.194 0.429,-0.262C0.429,-0.326 0.414,-0.375 0.385,-0.408C0.356,-0.441 0.32,-0.458 0.276,-0.458C0.232,-0.458 0.196,-0.441 0.167,-0.408C0.138,-0.375 0.124,-0.326 0.124,-0.259Z" style="fill-rule:nonzero;"/>
            </g>
            <g transform="matrix(11.1684,0,0,11.1684,85.0682,98)">
                <path d="M0.066,-0L0.066,-0.519L0.145,-0.519L0.145,-0.445C0.183,-0.502 0.238,-0.53 0.31,-0.53C0.341,-0.53 0.37,-0.525 0.396,-0.513C0.422,-0.502 0.442,-0.487 0.455,-0.469C0.468,-0.451 0.477,-0.429 0.482,-0.404C0.486,-0.388 0.487,-0.36 0.487,-0.319L0.487,-0L0.399,-0L0.399,-0.315C0.399,-0.351 0.396,-0.378 0.389,-0.396C0.382,-0.413 0.37,-0.428 0.353,-0.438C0.335,-0.449 0.315,-0.454 0.292,-0.454C0.254,-0.454 0.222,-0.442 0.195,-0.418C0.167,-0.395 0.154,-0.35 0.154,-0.283L0.154,-0L0.066,-0Z" style="fill-rule:nonzero;"/>
            </g>
            <g transform="matrix(11.1684,0,0,11.1684,93.7662,98)">
                <path d="M-0.001,-0L0.273,-0.716L0.375,-0.716L0.668,-0L0.561,-0L0.477,-0.217L0.178,-0.217L0.099,-0L-0.001,-0ZM0.205,-0.294L0.448,-0.294L0.373,-0.492C0.35,-0.552 0.333,-0.602 0.322,-0.641C0.313,-0.595 0.3,-0.549 0.284,-0.504L0.205,-0.294Z" style="fill-rule:nonzero;"/>
            </g>
            <g transform="matrix(11.1684,0,0,11.1684,101.215,98)">
                <path d="M0.077,-0L0.077,-0.716L0.347,-0.716C0.395,-0.716 0.431,-0.714 0.456,-0.709C0.491,-0.703 0.521,-0.692 0.544,-0.676C0.568,-0.659 0.587,-0.636 0.602,-0.606C0.616,-0.577 0.624,-0.544 0.624,-0.509C0.624,-0.448 0.604,-0.396 0.565,-0.354C0.527,-0.312 0.457,-0.291 0.355,-0.291L0.172,-0.291L0.172,-0L0.077,-0ZM0.172,-0.375L0.357,-0.375C0.418,-0.375 0.462,-0.387 0.487,-0.41C0.513,-0.432 0.526,-0.465 0.526,-0.506C0.526,-0.536 0.518,-0.561 0.503,-0.583C0.488,-0.604 0.468,-0.618 0.443,-0.625C0.427,-0.629 0.398,-0.631 0.355,-0.631L0.172,-0.631L0.172,-0.375Z" style="fill-rule:nonzero;"/>
            </g>
            <g transform="matrix(11.1684,0,0,11.1684,108.665,98)">
                <rect x="0.093" y="-0.716" width="0.095" height="0.716" style="fill-rule:nonzero;"/>
            </g>
        </g>
    </g>
    <g transform="matrix(0.987001,-0.160715,0.160715,0.987001,88.1971,-66.0158)">
        <g transform="matrix(0.701149,0,0,1,9.66667,-1)">
            <rect x="29" y="92" width="87" height="12" style="fill:white;"/>
        </g>
        <g transform="matrix(1,0,0,1,-7,3)">
            <g transform="matrix(11.1684,0,0,11.1684,41,98)">
                <path d="M0.402,-0L0.402,-0.065C0.369,-0.014 0.321,0.012 0.257,0.012C0.216,0.012 0.178,0 0.143,-0.022C0.109,-0.045 0.082,-0.077 0.063,-0.118C0.044,-0.159 0.034,-0.206 0.034,-0.259C0.034,-0.311 0.043,-0.358 0.06,-0.4C0.077,-0.442 0.103,-0.474 0.138,-0.497C0.172,-0.519 0.211,-0.53 0.253,-0.53C0.285,-0.53 0.313,-0.524 0.337,-0.51C0.361,-0.497 0.381,-0.48 0.396,-0.459L0.396,-0.716L0.484,-0.716L0.484,-0L0.402,-0ZM0.125,-0.259C0.125,-0.192 0.139,-0.143 0.167,-0.11C0.194,-0.077 0.228,-0.061 0.266,-0.061C0.304,-0.061 0.337,-0.076 0.364,-0.108C0.39,-0.139 0.404,-0.187 0.404,-0.251C0.404,-0.322 0.39,-0.375 0.363,-0.408C0.335,-0.441 0.302,-0.458 0.262,-0.458C0.223,-0.458 0.19,-0.442 0.164,-0.41C0.138,-0.378 0.125,-0.327 0.125,-0.259Z" style="fill-rule:nonzero;"/>
            </g>
            <g transform="matrix(11.1684,0,0,11.1684,47.2113,98)">
                <path d="M0.033,-0.259C0.033,-0.355 0.06,-0.426 0.113,-0.473C0.158,-0.511 0.212,-0.53 0.276,-0.53C0.348,-0.53 0.406,-0.507 0.451,-0.46C0.496,-0.413 0.519,-0.349 0.519,-0.267C0.519,-0.2 0.509,-0.147 0.489,-0.109C0.469,-0.071 0.44,-0.041 0.402,-0.02C0.363,0.001 0.322,0.012 0.276,0.012C0.204,0.012 0.145,-0.012 0.1,-0.058C0.056,-0.105 0.033,-0.172 0.033,-0.259ZM0.124,-0.259C0.124,-0.193 0.138,-0.143 0.167,-0.11C0.196,-0.077 0.232,-0.061 0.276,-0.061C0.32,-0.061 0.356,-0.077 0.385,-0.11C0.414,-0.144 0.429,-0.194 0.429,-0.262C0.429,-0.326 0.414,-0.375 0.385,-0.408C0.356,-0.441 0.32,-0.458 0.276,-0.458C0.232,-0.458 0.196,-0.441 0.167,-0.408C0.138,-0.375 0.124,-0.326 0.124,-0.259Z" style="fill-rule:nonzero;"/>
            </g>
            <g transform="matrix(11.1684,0,0,11.1684,53.4226,98)">
                <path d="M0.404,-0.19L0.491,-0.179C0.481,-0.119 0.457,-0.073 0.418,-0.039C0.379,-0.005 0.332,0.012 0.275,0.012C0.204,0.012 0.147,-0.011 0.104,-0.058C0.061,-0.104 0.039,-0.171 0.039,-0.257C0.039,-0.313 0.048,-0.362 0.067,-0.404C0.085,-0.446 0.114,-0.478 0.152,-0.499C0.19,-0.52 0.231,-0.53 0.275,-0.53C0.332,-0.53 0.378,-0.516 0.414,-0.488C0.449,-0.459 0.472,-0.419 0.482,-0.366L0.397,-0.353C0.389,-0.388 0.374,-0.414 0.354,-0.432C0.333,-0.449 0.308,-0.458 0.279,-0.458C0.235,-0.458 0.199,-0.442 0.171,-0.41C0.143,-0.379 0.129,-0.328 0.129,-0.26C0.129,-0.19 0.143,-0.139 0.169,-0.108C0.196,-0.076 0.231,-0.061 0.274,-0.061C0.308,-0.061 0.337,-0.071 0.36,-0.092C0.383,-0.113 0.398,-0.146 0.404,-0.19Z" style="fill-rule:nonzero;"/>
            </g>
            <g transform="matrix(11.1684,0,0,11.1684,59.0068,98)">
                <path d="M0.066,-0L0.066,-0.716L0.154,-0.716L0.154,-0.308L0.362,-0.519L0.476,-0.519L0.278,-0.326L0.496,-0L0.388,-0L0.216,-0.265L0.154,-0.206L0.154,-0L0.066,-0Z" style="fill-rule:nonzero;"/>
            </g>
            <g transform="matrix(11.1684,0,0,11.1684,64.591,98)">
                <path d="M0.421,-0.167L0.512,-0.156C0.497,-0.103 0.471,-0.062 0.432,-0.032C0.393,-0.003 0.344,0.012 0.284,0.012C0.208,0.012 0.148,-0.012 0.103,-0.058C0.059,-0.105 0.037,-0.171 0.037,-0.255C0.037,-0.342 0.059,-0.41 0.104,-0.458C0.149,-0.506 0.207,-0.53 0.279,-0.53C0.348,-0.53 0.405,-0.507 0.449,-0.459C0.493,-0.412 0.515,-0.346 0.515,-0.26C0.515,-0.255 0.514,-0.247 0.514,-0.237L0.127,-0.237C0.131,-0.18 0.147,-0.136 0.176,-0.106C0.205,-0.076 0.241,-0.061 0.284,-0.061C0.316,-0.061 0.344,-0.069 0.367,-0.086C0.389,-0.103 0.408,-0.13 0.421,-0.167ZM0.132,-0.309L0.422,-0.309C0.418,-0.353 0.407,-0.385 0.389,-0.407C0.361,-0.441 0.324,-0.458 0.28,-0.458C0.239,-0.458 0.205,-0.444 0.178,-0.417C0.15,-0.39 0.135,-0.354 0.132,-0.309Z" style="fill-rule:nonzero;"/>
            </g>
            <g transform="matrix(11.1684,0,0,11.1684,70.8023,98)">
                <path d="M0.065,-0L0.065,-0.519L0.144,-0.519L0.144,-0.44C0.164,-0.477 0.183,-0.501 0.2,-0.513C0.217,-0.524 0.236,-0.53 0.256,-0.53C0.286,-0.53 0.316,-0.521 0.347,-0.502L0.316,-0.42C0.295,-0.433 0.273,-0.439 0.252,-0.439C0.233,-0.439 0.215,-0.434 0.2,-0.422C0.185,-0.411 0.174,-0.395 0.167,-0.374C0.158,-0.343 0.153,-0.309 0.153,-0.271L0.153,-0L0.065,-0Z" style="fill-rule:nonzero;"/>
            </g>
            <g transform="matrix(11.1684,0,0,11.1684,77.0082,98)">
                <path d="M-0.001,-0L0.273,-0.716L0.375,-0.716L0.668,-0L0.561,-0L0.477,-0.217L0.178,-0.217L0.099,-0L-0.001,-0ZM0.205,-0.294L0.448,-0.294L0.373,-0.492C0.35,-0.552 0.333,-0.602 0.322,-0.641C0.313,-0.595 0.3,-0.549 0.284,-0.504L0.205,-0.294Z" style="fill-rule:nonzero;"/>
            </g>
            <g transform="matrix(11.1684,0,0,11.1684,84.4574,98)">
                <path d="M0.077,-0L0.077,-0.716L0.347,-0.716C0.395,-0.716 0.431,-0.714 0.456,-0.709C0.491,-0.703 0.521,-0.692 0.544,-0.676C0.568,-0.659 0.587,-0.636 0.602,-0.606C0.616,-0.577 0.624,-0.544 0.624,-0.509C0.624,-0.448 0.604,-0.396 0.565,-0.354C0.527,-0.312 0.457,-0.291 0.355,-0.291L0.172,-0.291L0.172,-0L0.077,-0ZM0.172,-0.375L0.357,-0.375C0.418,-0.375 0.462,-0.387 0.487,-0.41C0.513,-0.432 0.526,-0.465 0.526,-0.506C0.526,-0.536 0.518,-0.561 0.503,-0.583C0.488,-0.604 0.468,-0.618 0.443,-0.625C0.427,-0.629 0.398,-0.631 0.355,-0.631L0.172,-0.631L0.172,-0.375Z" style="fill-rule:nonzero;"/>
            </g>
            <g transform="matrix(11.1684,0,0,11.1684,91.9066,98)">
                <rect x="0.093" y="-0.716" width="0.095" height="0.716" style="fill-rule:nonzero;"/>
            </g>
        </g>
    </g>
    <g transform="matrix(0.719654,0.694332,-0.694332,0.719654,487.099,-10.3824)">
        <g transform="matrix(0.275862,0,0,1.16667,23,-16.3333)">
            <rect x="29" y="92" width="87" height="12" style="fill:white;"/>
        </g>
        <g transform="matrix(1,0,0,1,-7,3)">
            <g transform="matrix(11.1684,0,0,11.1684,41,98)">
                <path d="M0.066,0.199L0.066,-0.519L0.146,-0.519L0.146,-0.451C0.165,-0.478 0.186,-0.497 0.21,-0.51C0.234,-0.524 0.263,-0.53 0.296,-0.53C0.341,-0.53 0.38,-0.519 0.414,-0.496C0.447,-0.473 0.473,-0.441 0.49,-0.4C0.507,-0.358 0.516,-0.313 0.516,-0.263C0.516,-0.21 0.507,-0.162 0.488,-0.12C0.469,-0.077 0.441,-0.045 0.405,-0.022C0.368,0 0.33,0.012 0.29,0.012C0.261,0.012 0.234,0.006 0.211,-0.007C0.188,-0.019 0.169,-0.035 0.154,-0.054L0.154,0.199L0.066,0.199ZM0.146,-0.256C0.146,-0.19 0.159,-0.14 0.186,-0.108C0.213,-0.076 0.246,-0.061 0.284,-0.061C0.323,-0.061 0.357,-0.077 0.385,-0.11C0.412,-0.143 0.426,-0.194 0.426,-0.264C0.426,-0.33 0.413,-0.379 0.385,-0.412C0.358,-0.445 0.326,-0.461 0.288,-0.461C0.251,-0.461 0.218,-0.444 0.189,-0.409C0.16,-0.374 0.146,-0.323 0.146,-0.256Z" style="fill-rule:nonzero;"/>
            </g>
            <g transform="matrix(11.1684,0,0,11.1684,47.2113,98)">
                <path d="M0.503,-0.084L0.503,-0L0.03,-0C0.03,-0.021 0.033,-0.042 0.041,-0.061C0.053,-0.093 0.072,-0.125 0.098,-0.156C0.125,-0.188 0.163,-0.224 0.213,-0.265C0.291,-0.328 0.344,-0.379 0.371,-0.416C0.398,-0.454 0.412,-0.489 0.412,-0.522C0.412,-0.557 0.4,-0.586 0.375,-0.61C0.35,-0.634 0.317,-0.646 0.277,-0.646C0.235,-0.646 0.201,-0.633 0.176,-0.608C0.15,-0.583 0.138,-0.547 0.137,-0.502L0.047,-0.512C0.053,-0.579 0.076,-0.63 0.117,-0.666C0.157,-0.701 0.211,-0.719 0.279,-0.719C0.348,-0.719 0.402,-0.7 0.442,-0.662C0.482,-0.624 0.502,-0.576 0.502,-0.52C0.502,-0.491 0.497,-0.463 0.485,-0.436C0.473,-0.408 0.454,-0.379 0.427,-0.348C0.399,-0.318 0.354,-0.276 0.291,-0.222C0.238,-0.178 0.204,-0.148 0.189,-0.132C0.174,-0.116 0.162,-0.1 0.152,-0.084L0.503,-0.084Z" style="fill-rule:nonzero;"/>
            </g>
            <g transform="matrix(11.1684,0,0,11.1684,53.4226,98)">
                <path d="M0.066,0.199L0.066,-0.519L0.146,-0.519L0.146,-0.451C0.165,-0.478 0.186,-0.497 0.21,-0.51C0.234,-0.524 0.263,-0.53 0.296,-0.53C0.341,-0.53 0.38,-0.519 0.414,-0.496C0.447,-0.473 0.473,-0.441 0.49,-0.4C0.507,-0.358 0.516,-0.313 0.516,-0.263C0.516,-0.21 0.507,-0.162 0.488,-0.12C0.469,-0.077 0.441,-0.045 0.405,-0.022C0.368,0 0.33,0.012 0.29,0.012C0.261,0.012 0.234,0.006 0.211,-0.007C0.188,-0.019 0.169,-0.035 0.154,-0.054L0.154,0.199L0.066,0.199ZM0.146,-0.256C0.146,-0.19 0.159,-0.14 0.186,-0.108C0.213,-0.076 0.246,-0.061 0.284,-0.061C0.323,-0.061 0.357,-0.077 0.385,-0.11C0.412,-0.143 0.426,-0.194 0.426,-0.264C0.426,-0.33 0.413,-0.379 0.385,-0.412C0.358,-0.445 0.326,-0.461 0.288,-0.461C0.251,-0.461 0.218,-0.444 0.189,-0.409C0.16,-0.374 0.146,-0.323 0.146,-0.256Z" style="fill-rule:nonzero;"/>
            </g>
        </g>
    </g>
    <g transform="matrix(0.902541,-0.430603,0.430603,0.902541,137.983,44.0851)">
        <g transform="matrix(1.05278,4.14738e-17,-1.29876e-16,1,-16.8263,-1)">
            <rect x="29" y="92" width="87" height="12" style="fill:white;"/>
        </g>
        <g transform="matrix(1,0,0,1,-7,3)">
            <g transform="matrix(11.1684,0,0,11.1684,24.0866,98)">
                <path d="M0.079,-0L0.079,-0.716L0.396,-0.716C0.46,-0.716 0.508,-0.709 0.542,-0.697C0.575,-0.684 0.601,-0.661 0.621,-0.628C0.641,-0.596 0.651,-0.56 0.651,-0.521C0.651,-0.47 0.634,-0.427 0.602,-0.392C0.569,-0.357 0.518,-0.335 0.449,-0.326C0.474,-0.314 0.493,-0.302 0.506,-0.29C0.534,-0.265 0.56,-0.233 0.585,-0.195L0.709,-0L0.59,-0L0.496,-0.149C0.468,-0.192 0.445,-0.225 0.427,-0.248C0.409,-0.27 0.393,-0.286 0.379,-0.295C0.365,-0.305 0.351,-0.311 0.336,-0.314C0.325,-0.317 0.308,-0.318 0.283,-0.318L0.173,-0.318L0.173,-0L0.079,-0ZM0.173,-0.4L0.377,-0.4C0.42,-0.4 0.454,-0.404 0.479,-0.413C0.503,-0.422 0.521,-0.437 0.534,-0.456C0.547,-0.476 0.553,-0.497 0.553,-0.521C0.553,-0.554 0.541,-0.582 0.516,-0.604C0.492,-0.626 0.453,-0.637 0.4,-0.637L0.173,-0.637L0.173,-0.4Z" style="fill-rule:nonzero;"/>
            </g>
            <g transform="matrix(11.1684,0,0,11.1684,32.152,98)">
                <path d="M0.077,-0L0.077,-0.716L0.347,-0.716C0.395,-0.716 0.431,-0.714 0.456,-0.709C0.491,-0.703 0.521,-0.692 0.544,-0.676C0.568,-0.659 0.587,-0.636 0.602,-0.606C0.616,-0.577 0.624,-0.544 0.624,-0.509C0.624,-0.448 0.604,-0.396 0.565,-0.354C0.527,-0.312 0.457,-0.291 0.355,-0.291L0.172,-0.291L0.172,-0L0.077,-0ZM0.172,-0.375L0.357,-0.375C0.418,-0.375 0.462,-0.387 0.487,-0.41C0.513,-0.432 0.526,-0.465 0.526,-0.506C0.526,-0.536 0.518,-0.561 0.503,-0.583C0.488,-0.604 0.468,-0.618 0.443,-0.625C0.427,-0.629 0.398,-0.631 0.355,-0.631L0.172,-0.631L0.172,-0.375Z" style="fill-rule:nonzero;"/>
            </g>
            <g transform="matrix(11.1684,0,0,11.1684,39.6012,98)">
                <path d="M0.588,-0.251L0.683,-0.227C0.663,-0.149 0.627,-0.09 0.575,-0.049C0.524,-0.008 0.461,0.012 0.386,0.012C0.309,0.012 0.246,-0.003 0.198,-0.035C0.15,-0.066 0.113,-0.112 0.088,-0.171C0.062,-0.231 0.05,-0.295 0.05,-0.363C0.05,-0.438 0.064,-0.503 0.093,-0.558C0.121,-0.614 0.162,-0.656 0.214,-0.685C0.267,-0.714 0.325,-0.728 0.388,-0.728C0.459,-0.728 0.52,-0.71 0.568,-0.673C0.617,-0.637 0.651,-0.586 0.67,-0.52L0.577,-0.498C0.561,-0.55 0.536,-0.588 0.505,-0.611C0.473,-0.635 0.434,-0.647 0.386,-0.647C0.331,-0.647 0.285,-0.634 0.248,-0.607C0.211,-0.581 0.185,-0.546 0.17,-0.501C0.155,-0.457 0.147,-0.411 0.147,-0.364C0.147,-0.303 0.156,-0.25 0.174,-0.204C0.192,-0.159 0.219,-0.125 0.257,-0.103C0.294,-0.08 0.335,-0.069 0.378,-0.069C0.431,-0.069 0.476,-0.084 0.513,-0.115C0.55,-0.145 0.575,-0.191 0.588,-0.251Z" style="fill-rule:nonzero;"/>
            </g>
            <g transform="matrix(11.1684,0,0,11.1684,50.7696,98)">
                <path d="M0.25,-0.116L0.25,-0.312L0.056,-0.312L0.056,-0.394L0.25,-0.394L0.25,-0.589L0.333,-0.589L0.333,-0.394L0.528,-0.394L0.528,-0.312L0.333,-0.312L0.333,-0.116L0.25,-0.116Z" style="fill-rule:nonzero;"/>
            </g>
            <g transform="matrix(11.1684,0,0,11.1684,60.3947,98)">
                <path d="M0.066,0.199L0.066,-0.519L0.146,-0.519L0.146,-0.451C0.165,-0.478 0.186,-0.497 0.21,-0.51C0.234,-0.524 0.263,-0.53 0.296,-0.53C0.341,-0.53 0.38,-0.519 0.414,-0.496C0.447,-0.473 0.473,-0.441 0.49,-0.4C0.507,-0.358 0.516,-0.313 0.516,-0.263C0.516,-0.21 0.507,-0.162 0.488,-0.12C0.469,-0.077 0.441,-0.045 0.405,-0.022C0.368,0 0.33,0.012 0.29,0.012C0.261,0.012 0.234,0.006 0.211,-0.007C0.188,-0.019 0.169,-0.035 0.154,-0.054L0.154,0.199L0.066,0.199ZM0.146,-0.256C0.146,-0.19 0.159,-0.14 0.186,-0.108C0.213,-0.076 0.246,-0.061 0.284,-0.061C0.323,-0.061 0.357,-0.077 0.385,-0.11C0.412,-0.143 0.426,-0.194 0.426,-0.264C0.426,-0.33 0.413,-0.379 0.385,-0.412C0.358,-0.445 0.326,-0.461 0.288,-0.461C0.251,-0.461 0.218,-0.444 0.189,-0.409C0.16,-0.374 0.146,-0.323 0.146,-0.256Z" style="fill-rule:nonzero;"/>
            </g>
            <g transform="matrix(11.1684,0,0,11.1684,66.606,98)">
                <path d="M0.503,-0.084L0.503,-0L0.03,-0C0.03,-0.021 0.033,-0.042 0.041,-0.061C0.053,-0.093 0.072,-0.125 0.098,-0.156C0.125,-0.188 0.163,-0.224 0.213,-0.265C0.291,-0.328 0.344,-0.379 0.371,-0.416C0.398,-0.454 0.412,-0.489 0.412,-0.522C0.412,-0.557 0.4,-0.586 0.375,-0.61C0.35,-0.634 0.317,-0.646 0.277,-0.646C0.235,-0.646 0.201,-0.633 0.176,-0.608C0.15,-0.583 0.138,-0.547 0.137,-0.502L0.047,-0.512C0.053,-0.579 0.076,-0.63 0.117,-0.666C0.157,-0.701 0.211,-0.719 0.279,-0.719C0.348,-0.719 0.402,-0.7 0.442,-0.662C0.482,-0.624 0.502,-0.576 0.502,-0.52C0.502,-0.491 0.497,-0.463 0.485,-0.436C0.473,-0.408 0.454,-0.379 0.427,-0.348C0.399,-0.318 0.354,-0.276 0.291,-0.222C0.238,-0.178 0.204,-0.148 0.189,-0.132C0.174,-0.116 0.162,-0.1 0.152,-0.084L0.503,-0.084Z" style="fill-rule:nonzero;"/>
            </g>
            <g transform="matrix(11.1684,0,0,11.1684,72.8173,98)">
                <path d="M0.066,0.199L0.066,-0.519L0.146,-0.519L0.146,-0.451C0.165,-0.478 0.186,-0.497 0.21,-0.51C0.234,-0.524 0.263,-0.53 0.296,-0.53C0.341,-0.53 0.38,-0.519 0.414,-0.496C0.447,-0.473 0.473,-0.441 0.49,-0.4C0.507,-0.358 0.516,-0.313 0.516,-0.263C0.516,-0.21 0.507,-0.162 0.488,-0.12C0.469,-0.077 0.441,-0.045 0.405,-0.022C0.368,0 0.33,0.012 0.29,0.012C0.261,0.012 0.234,0.006 0.211,-0.007C0.188,-0.019 0.169,-0.035 0.154,-0.054L0.154,0.199L0.066,0.199ZM0.146,-0.256C0.146,-0.19 0.159,-0.14 0.186,-0.108C0.213,-0.076 0.246,-0.061 0.284,-0.061C0.323,-0.061 0.357,-0.077 0.385,-0.11C0.412,-0.143 0.426,-0.194 0.426,-0.264C0.426,-0.33 0.413,-0.379 0.385,-0.412C0.358,-0.445 0.326,-0.461 0.288,-0.461C0.251,-0.461 0.218,-0.444 0.189,-0.409C0.16,-0.374 0.146,-0.323 0.146,-0.256Z" style="fill-rule:nonzero;"/>
            </g>
            <g transform="matrix(11.1684,0,0,11.1684,82.1316,98)">
                <path d="M0.258,-0.079L0.271,-0.001C0.246,0.004 0.224,0.007 0.204,0.007C0.172,0.007 0.147,0.002 0.13,-0.008C0.112,-0.018 0.1,-0.032 0.093,-0.048C0.086,-0.065 0.082,-0.099 0.082,-0.152L0.082,-0.45L0.018,-0.45L0.018,-0.519L0.082,-0.519L0.082,-0.647L0.169,-0.7L0.169,-0.519L0.258,-0.519L0.258,-0.45L0.169,-0.45L0.169,-0.147C0.169,-0.122 0.171,-0.106 0.174,-0.099C0.177,-0.091 0.182,-0.086 0.189,-0.082C0.196,-0.077 0.206,-0.075 0.219,-0.075C0.229,-0.075 0.242,-0.076 0.258,-0.079Z" style="fill-rule:nonzero;"/>
            </g>
            <g transform="matrix(11.1684,0,0,11.1684,85.2345,98)">
                <path d="M0.065,-0L0.065,-0.519L0.144,-0.519L0.144,-0.44C0.164,-0.477 0.183,-0.501 0.2,-0.513C0.217,-0.524 0.236,-0.53 0.256,-0.53C0.286,-0.53 0.316,-0.521 0.347,-0.502L0.316,-0.42C0.295,-0.433 0.273,-0.439 0.252,-0.439C0.233,-0.439 0.215,-0.434 0.2,-0.422C0.185,-0.411 0.174,-0.395 0.167,-0.374C0.158,-0.343 0.153,-0.309 0.153,-0.271L0.153,-0L0.065,-0Z" style="fill-rule:nonzero;"/>
            </g>
            <g transform="matrix(11.1684,0,0,11.1684,88.9536,98)">
                <path d="M0.404,-0.064C0.372,-0.036 0.34,-0.017 0.31,-0.005C0.28,0.006 0.248,0.012 0.213,0.012C0.156,0.012 0.113,-0.002 0.082,-0.03C0.051,-0.058 0.036,-0.093 0.036,-0.137C0.036,-0.162 0.042,-0.185 0.053,-0.206C0.065,-0.227 0.08,-0.244 0.099,-0.257C0.118,-0.27 0.139,-0.279 0.162,-0.286C0.179,-0.29 0.205,-0.295 0.24,-0.299C0.311,-0.307 0.363,-0.317 0.397,-0.329C0.397,-0.341 0.397,-0.349 0.397,-0.352C0.397,-0.388 0.389,-0.413 0.373,-0.428C0.35,-0.448 0.317,-0.458 0.272,-0.458C0.231,-0.458 0.201,-0.45 0.181,-0.436C0.161,-0.421 0.147,-0.396 0.137,-0.359L0.051,-0.371C0.059,-0.407 0.072,-0.437 0.09,-0.46C0.108,-0.482 0.134,-0.5 0.167,-0.512C0.201,-0.524 0.241,-0.53 0.285,-0.53C0.329,-0.53 0.365,-0.525 0.393,-0.515C0.421,-0.504 0.441,-0.491 0.454,-0.475C0.467,-0.46 0.476,-0.44 0.481,-0.416C0.484,-0.401 0.486,-0.374 0.486,-0.334L0.486,-0.217C0.486,-0.136 0.488,-0.084 0.491,-0.062C0.495,-0.041 0.503,-0.02 0.514,-0L0.422,-0C0.413,-0.018 0.407,-0.04 0.404,-0.064ZM0.397,-0.26C0.365,-0.247 0.317,-0.236 0.253,-0.227C0.217,-0.222 0.192,-0.216 0.177,-0.209C0.162,-0.203 0.15,-0.193 0.142,-0.181C0.134,-0.168 0.13,-0.154 0.13,-0.139C0.13,-0.116 0.139,-0.096 0.156,-0.081C0.174,-0.065 0.2,-0.057 0.234,-0.057C0.268,-0.057 0.298,-0.065 0.325,-0.079C0.351,-0.094 0.37,-0.114 0.383,-0.14C0.392,-0.16 0.397,-0.189 0.397,-0.228L0.397,-0.26Z" style="fill-rule:nonzero;"/>
            </g>
            <g transform="matrix(11.1684,0,0,11.1684,95.165,98)">
                <path d="M0.087,-0L0.087,-0.45L0.009,-0.45L0.009,-0.519L0.087,-0.519L0.087,-0.574C0.087,-0.609 0.09,-0.634 0.096,-0.651C0.105,-0.674 0.12,-0.693 0.141,-0.707C0.162,-0.721 0.192,-0.728 0.23,-0.728C0.255,-0.728 0.283,-0.725 0.313,-0.719L0.299,-0.643C0.281,-0.646 0.264,-0.647 0.248,-0.647C0.221,-0.647 0.202,-0.642 0.191,-0.63C0.18,-0.619 0.174,-0.598 0.174,-0.566L0.174,-0.519L0.275,-0.519L0.275,-0.45L0.174,-0.45L0.174,-0L0.087,-0Z" style="fill-rule:nonzero;"/>
            </g>
            <g transform="matrix(11.1684,0,0,11.1684,98.2679,98)">
                <path d="M0.089,-0L0.089,-0.451L0.011,-0.451L0.011,-0.519L0.089,-0.519L0.089,-0.569C0.089,-0.62 0.1,-0.66 0.123,-0.687C0.145,-0.714 0.18,-0.728 0.228,-0.728C0.26,-0.728 0.29,-0.724 0.317,-0.717L0.303,-0.643C0.286,-0.646 0.27,-0.647 0.256,-0.647C0.226,-0.647 0.205,-0.641 0.194,-0.629C0.183,-0.617 0.177,-0.591 0.177,-0.552L0.177,-0.519L0.278,-0.519L0.278,-0.451L0.177,-0.451L0.177,-0L0.089,-0ZM0.344,-0.615L0.344,-0.716L0.432,-0.716L0.432,-0.615L0.344,-0.615ZM0.344,-0L0.344,-0.519L0.432,-0.519L0.432,-0L0.344,-0Z" style="fill-rule:nonzero;"/>
            </g>
            <g transform="matrix(11.1684,0,0,11.1684,103.852,98)">
                <path d="M0.404,-0.19L0.491,-0.179C0.481,-0.119 0.457,-0.073 0.418,-0.039C0.379,-0.005 0.332,0.012 0.275,0.012C0.204,0.012 0.147,-0.011 0.104,-0.058C0.061,-0.104 0.039,-0.171 0.039,-0.257C0.039,-0.313 0.048,-0.362 0.067,-0.404C0.085,-0.446 0.114,-0.478 0.152,-0.499C0.19,-0.52 0.231,-0.53 0.275,-0.53C0.332,-0.53 0.378,-0.516 0.414,-0.488C0.449,-0.459 0.472,-0.419 0.482,-0.366L0.397,-0.353C0.389,-0.388 0.374,-0.414 0.354,-0.432C0.333,-0.449 0.308,-0.458 0.279,-0.458C0.235,-0.458 0.199,-0.442 0.171,-0.41C0.143,-0.379 0.129,-0.328 0.129,-0.26C0.129,-0.19 0.143,-0.139 0.169,-0.108C0.196,-0.076 0.231,-0.061 0.274,-0.061C0.308,-0.061 0.337,-0.071 0.36,-0.092C0.383,-0.113 0.398,-0.146 0.404,-0.19Z" style="fill-rule:nonzero;"/>
            </g>
        </g>
    </g>
    <g transform="matrix(0.998766,-0.0496718,0.0496718,0.998766,177.28,56.0686)">
        <g transform="matrix(1.04598,0,0,1,3.66667,-1)">
            <rect x="29" y="92" width="87" height="12" style="fill:white;"/>
        </g>
        <g transform="matrix(1,0,0,1,12,2)">
            <g transform="matrix(11.1684,0,0,11.1684,24.0866,98)">
                <path d="M0.079,-0L0.079,-0.716L0.396,-0.716C0.46,-0.716 0.508,-0.709 0.542,-0.697C0.575,-0.684 0.601,-0.661 0.621,-0.628C0.641,-0.596 0.651,-0.56 0.651,-0.521C0.651,-0.47 0.634,-0.427 0.602,-0.392C0.569,-0.357 0.518,-0.335 0.449,-0.326C0.474,-0.314 0.493,-0.302 0.506,-0.29C0.534,-0.265 0.56,-0.233 0.585,-0.195L0.709,-0L0.59,-0L0.496,-0.149C0.468,-0.192 0.445,-0.225 0.427,-0.248C0.409,-0.27 0.393,-0.286 0.379,-0.295C0.365,-0.305 0.351,-0.311 0.336,-0.314C0.325,-0.317 0.308,-0.318 0.283,-0.318L0.173,-0.318L0.173,-0L0.079,-0ZM0.173,-0.4L0.377,-0.4C0.42,-0.4 0.454,-0.404 0.479,-0.413C0.503,-0.422 0.521,-0.437 0.534,-0.456C0.547,-0.476 0.553,-0.497 0.553,-0.521C0.553,-0.554 0.541,-0.582 0.516,-0.604C0.492,-0.626 0.453,-0.637 0.4,-0.637L0.173,-0.637L0.173,-0.4Z" style="fill-rule:nonzero;"/>
            </g>
            <g transform="matrix(11.1684,0,0,11.1684,32.152,98)">
                <path d="M0.077,-0L0.077,-0.716L0.347,-0.716C0.395,-0.716 0.431,-0.714 0.456,-0.709C0.491,-0.703 0.521,-0.692 0.544,-0.676C0.568,-0.659 0.587,-0.636 0.602,-0.606C0.616,-0.577 0.624,-0.544 0.624,-0.509C0.624,-0.448 0.604,-0.396 0.565,-0.354C0.527,-0.312 0.457,-0.291 0.355,-0.291L0.172,-0.291L0.172,-0L0.077,-0ZM0.172,-0.375L0.357,-0.375C0.418,-0.375 0.462,-0.387 0.487,-0.41C0.513,-0.432 0.526,-0.465 0.526,-0.506C0.526,-0.536 0.518,-0.561 0.503,-0.583C0.488,-0.604 0.468,-0.618 0.443,-0.625C0.427,-0.629 0.398,-0.631 0.355,-0.631L0.172,-0.631L0.172,-0.375Z" style="fill-rule:nonzero;"/>
            </g>
            <g transform="matrix(11.1684,0,0,11.1684,39.6012,98)">
                <path d="M0.588,-0.251L0.683,-0.227C0.663,-0.149 0.627,-0.09 0.575,-0.049C0.524,-0.008 0.461,0.012 0.386,0.012C0.309,0.012 0.246,-0.003 0.198,-0.035C0.15,-0.066 0.113,-0.112 0.088,-0.171C0.062,-0.231 0.05,-0.295 0.05,-0.363C0.05,-0.438 0.064,-0.503 0.093,-0.558C0.121,-0.614 0.162,-0.656 0.214,-0.685C0.267,-0.714 0.325,-0.728 0.388,-0.728C0.459,-0.728 0.52,-0.71 0.568,-0.673C0.617,-0.637 0.651,-0.586 0.67,-0.52L0.577,-0.498C0.561,-0.55 0.536,-0.588 0.505,-0.611C0.473,-0.635 0.434,-0.647 0.386,-0.647C0.331,-0.647 0.285,-0.634 0.248,-0.607C0.211,-0.581 0.185,-0.546 0.17,-0.501C0.155,-0.457 0.147,-0.411 0.147,-0.364C0.147,-0.303 0.156,-0.25 0.174,-0.204C0.192,-0.159 0.219,-0.125 0.257,-0.103C0.294,-0.08 0.335,-0.069 0.378,-0.069C0.431,-0.069 0.476,-0.084 0.513,-0.115C0.55,-0.145 0.575,-0.191 0.588,-0.251Z" style="fill-rule:nonzero;"/>
            </g>
            <g transform="matrix(11.1684,0,0,11.1684,50.7696,98)">
                <path d="M0.25,-0.116L0.25,-0.312L0.056,-0.312L0.056,-0.394L0.25,-0.394L0.25,-0.589L0.333,-0.589L0.333,-0.394L0.528,-0.394L0.528,-0.312L0.333,-0.312L0.333,-0.116L0.25,-0.116Z" style="fill-rule:nonzero;"/>
            </g>
            <g transform="matrix(11.1684,0,0,11.1684,60.3947,98)">
                <path d="M0.066,0.199L0.066,-0.519L0.146,-0.519L0.146,-0.451C0.165,-0.478 0.186,-0.497 0.21,-0.51C0.234,-0.524 0.263,-0.53 0.296,-0.53C0.341,-0.53 0.38,-0.519 0.414,-0.496C0.447,-0.473 0.473,-0.441 0.49,-0.4C0.507,-0.358 0.516,-0.313 0.516,-0.263C0.516,-0.21 0.507,-0.162 0.488,-0.12C0.469,-0.077 0.441,-0.045 0.405,-0.022C0.368,0 0.33,0.012 0.29,0.012C0.261,0.012 0.234,0.006 0.211,-0.007C0.188,-0.019 0.169,-0.035 0.154,-0.054L0.154,0.199L0.066,0.199ZM0.146,-0.256C0.146,-0.19 0.159,-0.14 0.186,-0.108C0.213,-0.076 0.246,-0.061 0.284,-0.061C0.323,-0.061 0.357,-0.077 0.385,-0.11C0.412,-0.143 0.426,-0.194 0.426,-0.264C0.426,-0.33 0.413,-0.379 0.385,-0.412C0.358,-0.445 0.326,-0.461 0.288,-0.461C0.251,-0.461 0.218,-0.444 0.189,-0.409C0.16,-0.374 0.146,-0.323 0.146,-0.256Z" style="fill-rule:nonzero;"/>
            </g>
            <g transform="matrix(11.1684,0,0,11.1684,66.606,98)">
                <path d="M0.503,-0.084L0.503,-0L0.03,-0C0.03,-0.021 0.033,-0.042 0.041,-0.061C0.053,-0.093 0.072,-0.125 0.098,-0.156C0.125,-0.188 0.163,-0.224 0.213,-0.265C0.291,-0.328 0.344,-0.379 0.371,-0.416C0.398,-0.454 0.412,-0.489 0.412,-0.522C0.412,-0.557 0.4,-0.586 0.375,-0.61C0.35,-0.634 0.317,-0.646 0.277,-0.646C0.235,-0.646 0.201,-0.633 0.176,-0.608C0.15,-0.583 0.138,-0.547 0.137,-0.502L0.047,-0.512C0.053,-0.579 0.076,-0.63 0.117,-0.666C0.157,-0.701 0.211,-0.719 0.279,-0.719C0.348,-0.719 0.402,-0.7 0.442,-0.662C0.482,-0.624 0.502,-0.576 0.502,-0.52C0.502,-0.491 0.497,-0.463 0.485,-0.436C0.473,-0.408 0.454,-0.379 0.427,-0.348C0.399,-0.318 0.354,-0.276 0.291,-0.222C0.238,-0.178 0.204,-0.148 0.189,-0.132C0.174,-0.116 0.162,-0.1 0.152,-0.084L0.503,-0.084Z" style="fill-rule:nonzero;"/>
            </g>
            <g transform="matrix(11.1684,0,0,11.1684,72.8173,98)">
                <path d="M0.066,0.199L0.066,-0.519L0.146,-0.519L0.146,-0.451C0.165,-0.478 0.186,-0.497 0.21,-0.51C0.234,-0.524 0.263,-0.53 0.296,-0.53C0.341,-0.53 0.38,-0.519 0.414,-0.496C0.447,-0.473 0.473,-0.441 0.49,-0.4C0.507,-0.358 0.516,-0.313 0.516,-0.263C0.516,-0.21 0.507,-0.162 0.488,-0.12C0.469,-0.077 0.441,-0.045 0.405,-0.022C0.368,0 0.33,0.012 0.29,0.012C0.261,0.012 0.234,0.006 0.211,-0.007C0.188,-0.019 0.169,-0.035 0.154,-0.054L0.154,0.199L0.066,0.199ZM0.146,-0.256C0.146,-0.19 0.159,-0.14 0.186,-0.108C0.213,-0.076 0.246,-0.061 0.284,-0.061C0.323,-0.061 0.357,-0.077 0.385,-0.11C0.412,-0.143 0.426,-0.194 0.426,-0.264C0.426,-0.33 0.413,-0.379 0.385,-0.412C0.358,-0.445 0.326,-0.461 0.288,-0.461C0.251,-0.461 0.218,-0.444 0.189,-0.409C0.16,-0.374 0.146,-0.323 0.146,-0.256Z" style="fill-rule:nonzero;"/>
            </g>
            <g transform="matrix(11.1684,0,0,11.1684,82.1316,98)">
                <path d="M0.258,-0.079L0.271,-0.001C0.246,0.004 0.224,0.007 0.204,0.007C0.172,0.007 0.147,0.002 0.13,-0.008C0.112,-0.018 0.1,-0.032 0.093,-0.048C0.086,-0.065 0.082,-0.099 0.082,-0.152L0.082,-0.45L0.018,-0.45L0.018,-0.519L0.082,-0.519L0.082,-0.647L0.169,-0.7L0.169,-0.519L0.258,-0.519L0.258,-0.45L0.169,-0.45L0.169,-0.147C0.169,-0.122 0.171,-0.106 0.174,-0.099C0.177,-0.091 0.182,-0.086 0.189,-0.082C0.196,-0.077 0.206,-0.075 0.219,-0.075C0.229,-0.075 0.242,-0.076 0.258,-0.079Z" style="fill-rule:nonzero;"/>
            </g>
            <g transform="matrix(11.1684,0,0,11.1684,85.2345,98)">
                <path d="M0.065,-0L0.065,-0.519L0.144,-0.519L0.144,-0.44C0.164,-0.477 0.183,-0.501 0.2,-0.513C0.217,-0.524 0.236,-0.53 0.256,-0.53C0.286,-0.53 0.316,-0.521 0.347,-0.502L0.316,-0.42C0.295,-0.433 0.273,-0.439 0.252,-0.439C0.233,-0.439 0.215,-0.434 0.2,-0.422C0.185,-0.411 0.174,-0.395 0.167,-0.374C0.158,-0.343 0.153,-0.309 0.153,-0.271L0.153,-0L0.065,-0Z" style="fill-rule:nonzero;"/>
            </g>
            <g transform="matrix(11.1684,0,0,11.1684,88.9536,98)">
                <path d="M0.404,-0.064C0.372,-0.036 0.34,-0.017 0.31,-0.005C0.28,0.006 0.248,0.012 0.213,0.012C0.156,0.012 0.113,-0.002 0.082,-0.03C0.051,-0.058 0.036,-0.093 0.036,-0.137C0.036,-0.162 0.042,-0.185 0.053,-0.206C0.065,-0.227 0.08,-0.244 0.099,-0.257C0.118,-0.27 0.139,-0.279 0.162,-0.286C0.179,-0.29 0.205,-0.295 0.24,-0.299C0.311,-0.307 0.363,-0.317 0.397,-0.329C0.397,-0.341 0.397,-0.349 0.397,-0.352C0.397,-0.388 0.389,-0.413 0.373,-0.428C0.35,-0.448 0.317,-0.458 0.272,-0.458C0.231,-0.458 0.201,-0.45 0.181,-0.436C0.161,-0.421 0.147,-0.396 0.137,-0.359L0.051,-0.371C0.059,-0.407 0.072,-0.437 0.09,-0.46C0.108,-0.482 0.134,-0.5 0.167,-0.512C0.201,-0.524 0.241,-0.53 0.285,-0.53C0.329,-0.53 0.365,-0.525 0.393,-0.515C0.421,-0.504 0.441,-0.491 0.454,-0.475C0.467,-0.46 0.476,-0.44 0.481,-0.416C0.484,-0.401 0.486,-0.374 0.486,-0.334L0.486,-0.217C0.486,-0.136 0.488,-0.084 0.491,-0.062C0.495,-0.041 0.503,-0.02 0.514,-0L0.422,-0C0.413,-0.018 0.407,-0.04 0.404,-0.064ZM0.397,-0.26C0.365,-0.247 0.317,-0.236 0.253,-0.227C0.217,-0.222 0.192,-0.216 0.177,-0.209C0.162,-0.203 0.15,-0.193 0.142,-0.181C0.134,-0.168 0.13,-0.154 0.13,-0.139C0.13,-0.116 0.139,-0.096 0.156,-0.081C0.174,-0.065 0.2,-0.057 0.234,-0.057C0.268,-0.057 0.298,-0.065 0.325,-0.079C0.351,-0.094 0.37,-0.114 0.383,-0.14C0.392,-0.16 0.397,-0.189 0.397,-0.228L0.397,-0.26Z" style="fill-rule:nonzero;"/>
            </g>
            <g transform="matrix(11.1684,0,0,11.1684,95.165,98)">
                <path d="M0.087,-0L0.087,-0.45L0.009,-0.45L0.009,-0.519L0.087,-0.519L0.087,-0.574C0.087,-0.609 0.09,-0.634 0.096,-0.651C0.105,-0.674 0.12,-0.693 0.141,-0.707C0.162,-0.721 0.192,-0.728 0.23,-0.728C0.255,-0.728 0.283,-0.725 0.313,-0.719L0.299,-0.643C0.281,-0.646 0.264,-0.647 0.248,-0.647C0.221,-0.647 0.202,-0.642 0.191,-0.63C0.18,-0.619 0.174,-0.598 0.174,-0.566L0.174,-0.519L0.275,-0.519L0.275,-0.45L0.174,-0.45L0.174,-0L0.087,-0Z" style="fill-rule:nonzero;"/>
            </g>
            <g transform="matrix(11.1684,0,0,11.1684,98.2679,98)">
                <path d="M0.089,-0L0.089,-0.451L0.011,-0.451L0.011,-0.519L0.089,-0.519L0.089,-0.569C0.089,-0.62 0.1,-0.66 0.123,-0.687C0.145,-0.714 0.18,-0.728 0.228,-0.728C0.26,-0.728 0.29,-0.724 0.317,-0.717L0.303,-0.643C0.286,-0.646 0.27,-0.647 0.256,-0.647C0.226,-0.647 0.205,-0.641 0.194,-0.629C0.183,-0.617 0.177,-0.591 0.177,-0.552L0.177,-0.519L0.278,-0.519L0.278,-0.451L0.177,-0.451L0.177,-0L0.089,-0ZM0.344,-0.615L0.344,-0.716L0.432,-0.716L0.432,-0.615L0.344,-0.615ZM0.344,-0L0.344,-0.519L0.432,-0.519L0.432,-0L0.344,-0Z" style="fill-rule:nonzero;"/>
            </g>
            <g transform="matrix(11.1684,0,0,11.1684,103.852,98)">
                <path d="M0.404,-0.19L0.491,-0.179C0.481,-0.119 0.457,-0.073 0.418,-0.039C0.379,-0.005 0.332,0.012 0.275,0.012C0.204,0.012 0.147,-0.011 0.104,-0.058C0.061,-0.104 0.039,-0.171 0.039,-0.257C0.039,-0.313 0.048,-0.362 0.067,-0.404C0.085,-0.446 0.114,-0.478 0.152,-0.499C0.19,-0.52 0.231,-0.53 0.275,-0.53C0.332,-0.53 0.378,-0.516 0.414,-0.488C0.449,-0.459 0.472,-0.419 0.482,-0.366L0.397,-0.353C0.389,-0.388 0.374,-0.414 0.354,-0.432C0.333,-0.449 0.308,-0.458 0.279,-0.458C0.235,-0.458 0.199,-0.442 0.171,-0.41C0.143,-0.379 0.129,-0.328 0.129,-0.26C0.129,-0.19 0.143,-0.139 0.169,-0.108C0.196,-0.076 0.231,-0.061 0.274,-0.061C0.308,-0.061 0.337,-0.071 0.36,-0.092C0.383,-0.113 0.398,-0.146 0.404,-0.19Z" style="fill-rule:nonzero;"/>
            </g>
        </g>
    </g>
    <path d="M219,33C142.851,49.709 126.613,86.602 122,112" style="fill:none;stroke:black;stroke-width:1px;stroke-dasharray:5,4,0,0;"/>
    <path d="M313,32C329.547,36.996 337.41,45.426 338,58" style="fill:none;stroke:black;stroke-width:1px;stroke-dasharray:5,4,0,0;"/>
    <path d="M313,25C460.68,28.391 481.136,66.585 487,111" style="fill:none;stroke:black;stroke-width:1px;stroke-dasharray:5,4,0,0;"/>
</svg>
